<svg width="180" height="30" viewBox="0 0 180 30" fill="none" xmlns="http://www.w3.org/2000/svg">
<g clip-path="url(#clip0_39_226)">
<path fill-rule="evenodd" clip-rule="evenodd" d="M17.5192 20.6259C18.0557 21.1012 17.7478 22.0635 18.2883 22.5224C19.322 23.3992 21.9284 22.3735 23.1741 22.8322C23.3924 22.9118 23.5864 23.0379 23.6965 23.2444C24.7244 25.1917 19.2243 27.2637 17.9763 27.5452C16.6404 27.8427 15.4618 27.804 14.0608 27.804C14.0608 27.7289 14.0342 27.6738 14.1261 27.6738C14.5176 27.227 14.8623 26.7661 15.1174 26.2464C15.3498 25.7366 15.5843 25.2267 15.8167 24.7166C15.9268 24.6374 16.039 24.558 16.1492 24.476V24.5414C16.1754 24.6187 16.3265 25.0633 16.2145 25.0633V25.1286H16.3447V25.0633C17.293 24.2536 17.2623 21.9085 17.5192 20.6259ZM12.1805 14.2738C12.6127 16.0683 14.0954 17.2977 16.0183 17.2977V17.363C14.3788 17.6678 13.9577 17.6839 12.625 16.9672C12.6901 17.2283 12.8442 17.5364 12.9095 17.7975C12.4905 17.7693 11.9005 16.6724 11.7539 15.6946C11.6601 15.0679 11.7485 14.49 12.1805 14.2738ZM14.6604 12.5992C16.2742 13.7175 16.4972 16.0615 19.4772 16.4942C19.9768 16.4798 20.4783 16.4657 20.9781 16.4493C20.0253 17.1042 19.1922 17.3548 18.4668 17.3125C16.4608 17.1955 15.2772 14.8396 14.6604 12.5992ZM16.6056 10.4457C19.3809 10.5336 19.9233 13.7901 21.7591 15.2054C21.9546 15.3154 22.1526 15.4255 22.3486 15.5357V15.6663C19.4977 15.5764 19.2366 13.7983 17.9535 11.8977C17.8811 11.1616 17.1737 10.8828 16.6056 10.4457ZM13.2776 5.22511H13.6691V5.29043C13.3775 5.53102 12.727 6.31198 12.3173 6.26509C12.3414 6.08527 12.1477 5.85697 11.5812 6.00811V5.87768H11.6463C12.0969 5.51486 12.7598 5.45158 13.2776 5.22511ZM10.2471 25.7052C10.2471 25.7052 9.92434 25.7439 9.84672 25.847C9.76933 25.9505 9.35621 26.6281 9.35621 26.6281C9.35621 26.6281 8.49764 26.0992 8.56205 26.0796C8.62669 26.06 8.98815 25.3826 9.14316 25.3175C9.29816 25.2531 10.7699 25.1175 10.7699 25.1175L11.6931 25.2659L11.9729 25.2797C12.188 24.0611 12.4154 22.9355 11.9524 21.6784C10.8674 17.8483 6.31957 16.0558 2.89781 18.2236C2.78969 18.3072 2.57027 18.4474 2.43574 18.5154C2.10547 17.3373 1.90289 16.1218 1.90289 14.9066C1.90289 7.76645 7.72647 1.94287 14.867 1.94287C22.0072 1.94287 27.8305 7.76645 27.8305 14.9066C27.8305 15.97 27.6789 17.1855 27.4256 18.1981L27.3732 18.146C26.6549 17.7625 23.2823 16.6906 23.2622 15.7317C23.676 15.6256 24.0921 15.5216 24.5062 15.4155C24.765 15.2808 25.1965 15.0065 25.4553 14.8717C23.4548 14.3289 22.6816 11.7024 22.1059 10.6699C21.6942 9.93222 21.0177 9.44672 20.8479 8.87949C21.1231 8.94095 21.6842 9.05886 21.9594 9.11986L21.8371 8.84467C21.5171 7.88822 19.9322 7.68451 19.2204 7.11979C19.1369 7.04376 18.6967 6.66091 18.8902 6.66091C19.1733 6.59559 19.5147 6.58148 19.7961 6.51615C18.8865 5.71881 17.8459 5.31501 17.8459 3.85485C17.7703 3.85485 17.7157 3.88763 17.7157 3.78953C16.3145 4.42981 14.6158 4.26866 13.0741 4.6827C12.338 4.94992 11.6019 5.21896 10.8635 5.48618V5.55151C10.9206 5.74726 10.8635 5.9512 10.7515 6.10007C10.6045 6.22434 10.4599 6.3509 10.3131 6.47518C9.60818 6.82776 8.8921 7.09748 8.44096 7.41091C7.9295 7.76622 7.78201 8.19346 8.81835 9.15673L9.36281 9.79292C9.39968 9.83321 9.38762 9.82137 9.42813 9.85825C9.39354 9.4911 9.2119 8.79368 9.51986 8.51849C10.5314 7.58276 12.1051 9.35408 11.7685 10.4942C11.4485 11.5239 10.0397 10.8618 10.0397 10.672H9.97441C10.0102 11.0974 10.6652 11.6685 10.5373 12.3379C10.7854 12.3379 12.3375 10.9626 12.503 10.7038C12.9375 10.0187 12.8988 9.09937 13.4576 8.46728C14.1307 7.69953 15.4361 7.44778 15.9384 6.58876C15.8956 6.3748 14.7528 5.02913 14.9752 5.02913V4.9638C15.3011 4.94127 15.6273 4.92101 15.9537 4.89848C16.3231 4.81084 16.6939 4.72526 17.0633 4.63763V4.70295H16.998V4.76828C16.853 4.83565 15.7582 5.38831 15.7582 5.42086C16.0693 5.93072 17.0528 6.49657 16.9126 7.03398C16.7269 7.72935 14.7284 8.21053 14.1594 8.71424C13.3334 9.44216 13.4702 10.6046 12.948 11.4837C12.638 12.0015 12.1425 12.2769 11.6856 12.64C10.4961 13.5841 10.1529 14.2483 10.218 14.76C10.3163 15.5323 10.6197 16.1293 11.2953 17.1019C10.2553 16.692 9.16159 15.5908 9.16159 14.3612C8.06243 14.0348 6.04302 13.9187 4.95 14.3407C4.46423 14.6307 3.97819 14.9202 3.49189 15.2093C3.31048 15.3051 2.64151 15.6907 2.64151 15.9272C2.77398 15.9272 2.7601 16.1519 2.70684 16.2536C2.90054 16.4778 3.32026 17.0607 3.64462 17.0607C3.93278 16.9217 4.0928 16.3226 4.17223 16.0676C4.21503 16.0676 4.23005 16.0578 4.27307 16.0578C4.36252 16.2224 4.59924 16.5595 4.59924 16.5798C5.21517 16.7327 5.98998 16.5044 6.68558 16.5167C8.20082 16.5393 9.58951 17.0776 10.7274 17.8198C11.3574 18.2298 11.486 18.9638 11.8796 19.547C12.2713 20.1263 12.889 20.6236 13.1481 21.2682C13.5762 22.3405 13.0441 25.2916 12.0346 25.7338C11.4371 25.7238 10.8428 25.7197 10.2471 25.7052Z" fill="#CC2229"/>
<path fill-rule="evenodd" clip-rule="evenodd" d="M14.8998 0C23.1065 0 29.7998 6.6933 29.7998 14.8998C29.7998 23.1063 23.1065 29.8001 14.8998 29.8001C6.6933 29.8001 0 23.1063 0 14.8998C0 6.69353 6.6933 0 14.8998 0ZM14.8998 0.69059C22.7264 0.69059 29.1095 7.07365 29.1095 14.9C29.1095 22.7264 22.7264 29.1099 14.8998 29.1099C7.07342 29.1099 0.690135 22.7264 0.690135 14.9C0.690135 7.07365 7.07342 0.69059 14.8998 0.69059Z" fill="#CC2229"/>
<path fill-rule="evenodd" clip-rule="evenodd" d="M37.5778 6.43956H42.793V13.2512H53.284V6.43956H58.4984V23.3355H53.284V15.8658H42.793V23.3355H37.5778V6.43956ZM75.1623 23.6708C71.3401 23.6708 68.4322 22.9265 66.4377 21.4364C64.4439 19.9417 63.4436 17.7656 63.4436 14.891C63.4436 12.0219 64.4439 9.84032 66.4377 8.34715C68.4314 6.85243 71.3394 6.10352 75.1623 6.10352C78.9961 6.10352 81.9103 6.85243 83.8986 8.34715C85.8869 9.84032 86.8803 12.0211 86.8803 14.891C86.8803 17.7648 85.8869 19.9417 83.8986 21.4364C81.9103 22.9265 78.9961 23.6708 75.1623 23.6708ZM75.1623 21.0562C77.3097 21.0562 78.9348 20.5315 80.0516 19.4846C81.1621 18.44 81.7201 16.9111 81.7201 14.8918C81.7201 12.8787 81.1621 11.3482 80.0516 10.2959C78.9348 9.2443 77.3089 8.71967 75.1623 8.71967C73.0273 8.71967 71.4014 9.2443 70.2847 10.2959C69.1625 11.3475 68.6037 12.8787 68.6037 14.8918C68.6037 16.9111 69.1625 18.44 70.2847 19.4846C71.4007 20.5315 73.0265 21.0562 75.1623 21.0562ZM91.8192 23.3355V6.43956H97.0337V20.7209H107.598V23.3355H91.8192ZM111.483 6.43956H121.53C125.293 6.43956 128.23 7.19002 130.347 8.68319C132.464 10.1779 133.518 12.2485 133.518 14.8918C133.518 17.6507 132.323 19.7516 129.931 21.1834C127.543 22.6192 124.04 23.3355 119.427 23.3355H111.483V6.43956ZM116.697 20.7209H120.31C122.942 20.7209 124.943 20.225 126.311 19.2339C127.679 18.2444 128.359 16.7947 128.359 14.891C128.359 13.0253 127.648 11.5849 126.231 10.5745C124.808 9.56326 122.795 9.05571 120.182 9.05571H116.697V20.7209ZM137.815 23.3355V6.43956H154.49V9.05571H143.029V13.2512H153.809V15.8658H143.029V20.7209H154.833V23.3355H137.815ZM163.551 23.3355H158.771V6.43956H166.067L175.221 19.1858V6.43956H180V23.3355H172.809L163.551 10.4348V23.3355Z" fill="black"/>
</g>
<defs>
<clipPath id="clip0_39_226">
<rect width="180" height="30" fill="white"/>
</clipPath>
</defs>
</svg>
