<svg width="168" height="31" viewBox="0 0 168 31" fill="none" xmlns="http://www.w3.org/2000/svg">
<path fill-rule="evenodd" clip-rule="evenodd" d="M38.4908 17.5166H44.7374V17.2767C44.7374 15.7732 44.5715 14.9821 44.0888 14.2336C43.5664 13.4411 42.8014 13.0462 41.711 13.0462C39.6618 13.0462 38.4908 14.6266 38.4908 17.4423V17.5166ZM47.9901 24.4454L50.0907 27.616C47.7155 29.5112 45.2213 30.4206 42.3231 30.4206C36.3927 30.4206 32.5707 26.305 32.5707 19.927C32.5707 16.2924 33.3383 13.8761 35.1469 11.9015C36.8402 10.0365 38.8869 9.1665 41.6361 9.1665C44.01 9.1665 46.2661 9.95703 47.5965 11.2976C49.4824 13.2013 50.3314 15.9349 50.3314 20.1734V21.4035H38.4074V21.5586C38.4074 24.6826 39.9707 26.4654 42.7603 26.4654C44.6182 26.4654 46.3448 25.7885 47.9901 24.4454V24.4454Z" fill="#E63329"/>
<path fill-rule="evenodd" clip-rule="evenodd" d="M146.121 29.5527H151.6V0.928223H146.121V29.5527ZM157.079 9.43474L151.721 18.2036L158.746 29.5516H165.204L157.172 18.0372L163.653 9.43474H157.079Z" fill="#E63329"/>
<path fill-rule="evenodd" clip-rule="evenodd" d="M119.149 28.3144C118.834 28.7447 118.613 29.0747 117.501 29.6146C116.941 29.8904 115.768 30.3412 114.435 30.3412C109.824 30.3412 107.495 28.1883 107.495 24.1274C107.495 19.3617 110.861 17.123 117.466 17.123C117.871 17.123 118.105 17.123 118.681 17.1752V16.3443C118.681 14.0666 118.23 13.3149 116.251 13.3149C114.505 13.3149 112.481 14.1551 110.255 15.6229L107.953 11.8016C109.278 10.97 109.85 10.6954 111.302 10.1364C113.33 9.30156 115.081 8.94385 116.972 8.94385C120.459 8.94385 122.839 10.213 123.652 12.4814C123.934 13.3149 124.02 13.9544 124.02 16.141L123.891 22.9771C123.891 23.0939 123.898 25.5926 123.898 25.5491C123.898 27.236 123.979 28.981 124.445 29.8297H119.675C119.382 29.474 119.149 28.3144 119.149 28.3144V28.3144ZM118.592 20.6967H118.359C114.589 20.6967 113.288 21.3719 113.288 23.7907C113.288 25.3793 114.302 26.4511 115.689 26.4511C116.692 26.4511 117.708 25.9383 118.51 25.0585L118.592 20.6967Z" fill="#E63329"/>
<path fill-rule="evenodd" clip-rule="evenodd" d="M24.889 29.8198V16.4254C24.889 14.0059 24.6034 13.5241 23.1851 13.5241C22.1825 13.5241 20.7695 14.2019 19.5983 15.2322V29.8198H14.4683V16.6155C14.4683 14.0779 14.1076 13.4766 12.6109 13.4766C11.5972 13.4766 10.2286 14.0059 9.05866 15.0302V29.8198H3.76861V15.6658C3.76861 12.7275 3.56273 11.4591 3 10.4704L7.88288 9.15967C8.24496 9.71933 8.40509 10.1932 8.6175 11.2281C10.0279 9.87245 11.7658 9.15967 13.6579 9.15967C15.3559 9.15967 16.7696 9.71933 17.865 10.8222C18.1434 11.0954 18.4238 11.4591 18.663 11.8207C20.5727 9.92261 22.2675 9.15967 24.5217 9.15967C26.1366 9.15967 27.6706 9.64278 28.6006 10.4381C29.7647 11.4228 30.1326 12.6041 30.1326 15.386V29.8198H24.889Z" fill="#E63329"/>
<path fill-rule="evenodd" clip-rule="evenodd" d="M77.2705 13.3264C77.2705 12.5325 76.8764 12.0474 76.3987 12.0474C75.2706 12.0474 74.366 13.6333 73.0216 16.8435L71.3289 16.1406C73.2275 11.3023 75.2706 8.97119 78.3555 8.97119C81.2129 8.97119 82.9397 11.0416 82.9397 14.6457C82.9397 16.0469 82.6449 17.5833 82.1573 19.3943L81.1711 23.1681C80.8208 24.397 80.7371 25.2807 80.7371 25.7572C80.7371 26.7261 81.1711 27.2528 81.8639 27.2528C83.0795 27.2528 84.1599 25.5375 85.3272 22.1597L86.9337 22.9483C85.5827 27.92 83.288 30.3784 79.9515 30.3784C76.8398 30.3784 74.9235 28.353 74.9235 24.8828C74.9235 22.9959 75.4915 20.938 76.0954 18.469L76.8764 15.3506C77.0941 14.4695 77.2705 13.8029 77.2705 13.3264" fill="#009CDE"/>
<path fill-rule="evenodd" clip-rule="evenodd" d="M126.165 10.4708L131.047 9.1594C131.304 9.52701 131.778 10.6708 131.778 11.5004C133.038 10.6265 133.276 10.4648 134.172 9.98504C135.255 9.43131 136.675 9.11914 137.901 9.11914C140.204 9.11914 142.228 10.3071 142.881 12.0534C143.16 12.8085 143.275 13.6882 143.275 14.956V29.8202H137.94V16.5882C137.94 14.2855 137.53 13.6097 136.119 13.6097C135.017 13.6097 133.608 14.3284 132.351 15.4326V29.8202H126.923V15.0795C126.923 11.9162 126.425 10.9262 126.165 10.4708" fill="#E63329"/>
<path fill-rule="evenodd" clip-rule="evenodd" d="M64.7189 14.8384C63.7137 13.9626 62.7366 13.5244 61.7634 13.5244C59.3289 13.5244 58.2779 15.5162 58.2779 20.0497C58.2779 24.4188 59.2119 25.8457 62.0445 25.8457C63.0569 25.8457 64.1915 25.1679 64.7189 24.5402V14.8384ZM65.8028 29.8199C65.5682 29.3685 65.4322 28.5633 65.4322 28.5633C64.2551 29.5064 62.4081 30.342 60.8323 30.342C55.5782 30.342 52.2469 26.3233 52.2469 20.0086C52.2469 13.645 55.8554 9.26736 61.1147 9.26736C62.614 9.26736 63.7839 9.62903 64.7891 10.4217V0.754883H70.023V29.8199H65.8028Z" fill="#E63329"/>
<path fill-rule="evenodd" clip-rule="evenodd" d="M99.7928 15.9494C99.3987 14.2024 98.2569 13.3675 96.84 13.3675C95.4308 13.3675 94.4511 14.2374 93.774 14.9911V24.378C94.4903 25.0169 95.3498 25.6894 96.8066 25.6894C98.1425 25.6894 99 25.168 99.4386 24.1008C99.9248 22.9815 100.03 21.9071 100.03 19.4051C100.03 17.5815 99.9987 16.8239 99.7928 15.9494V15.9494ZM93.6075 0.754883V10.5781C94.6636 9.47196 96.2518 8.95651 97.972 8.95651C103.038 8.95651 106.19 12.929 106.19 19.2899C106.19 23.4253 104.901 26.6487 102.346 28.632C100.937 29.7427 99.5132 30.2278 97.8106 30.2179C95.8577 30.2146 94.4192 29.678 93.2428 28.3983C93.2428 28.3983 93.1539 29.0874 92.8918 29.8199H88.3076L88.3043 22.3885V0.754883H93.6075Z" fill="#E63329"/>
<path fill-rule="evenodd" clip-rule="evenodd" d="M79.1494 0.330566C81.0958 0.330566 82.5624 1.81421 82.5624 3.71761C82.5624 5.58602 81.0539 7.11059 79.1494 7.11059C77.2534 7.11059 75.6998 5.58602 75.6998 3.71761C75.6998 1.84655 77.2534 0.330566 79.1494 0.330566" fill="#009CDE"/>
</svg>
