<svg width="202" height="46" viewBox="0 0 202 46" fill="none" xmlns="http://www.w3.org/2000/svg">
<path fill-rule="evenodd" clip-rule="evenodd" d="M7.36634 4.07959C8.94935 4.07959 10.5324 4.70302 11.7451 5.90641C13.5987 7.75318 14.0218 10.133 13.075 12.4764C12.5138 13.904 11.1674 15.1156 10.284 16.5774C9.28915 18.1928 8.7771 19.4819 8.64821 22.2621V22.302C8.7771 25.0775 9.28915 26.3783 10.284 27.9738C11.1674 29.452 12.5138 30.6353 13.075 32.0865C14.0218 34.4346 13.5987 36.7874 11.7451 38.6529C10.5324 39.8481 8.94935 40.4681 7.36634 40.4681H7.33705C5.75639 40.4681 4.17456 39.8481 2.96298 38.6529C1.10814 36.7874 0.691 34.4346 1.62136 32.0865C2.18964 30.6353 3.54417 29.452 4.43819 27.9738C5.41424 26.3783 5.92863 25.0775 6.05987 22.302V22.2621C5.92863 19.4819 5.41424 18.1928 4.43819 16.5774C3.54417 15.1156 2.18964 13.904 1.62136 12.4764C0.691 10.133 1.10814 7.75318 2.96298 5.90641C4.17456 4.70302 5.75639 4.07959 7.33705 4.07959H7.36634Z" fill="#59E0FF"/>
<path fill-rule="evenodd" clip-rule="evenodd" d="M14.878 17.8976C17.2975 15.4638 21.2357 15.4638 23.6636 17.8858C26.095 20.3197 26.095 24.2797 23.6636 26.7147C21.2357 29.1532 17.2975 29.1532 14.878 26.7147C12.4419 24.2797 12.4419 20.3197 14.878 17.8976Z" fill="#59E0FF"/>
<path fill-rule="evenodd" clip-rule="evenodd" d="M31.1841 4.0791C32.7706 4.0791 34.3535 4.70252 35.5581 5.90592C37.4059 7.7527 37.8337 10.1325 36.9045 12.4759C36.3314 13.9035 34.9817 15.1152 34.0795 16.5768C33.1116 18.1923 32.6019 19.4814 32.4542 22.2616V22.3015C32.6019 25.0769 33.1116 26.3778 34.0795 27.9733C34.9817 29.4514 36.3314 30.6349 36.9045 32.086C37.8337 34.4341 37.4059 36.7869 35.5581 38.6525C34.3618 39.8477 32.7706 40.4675 31.1841 40.4675H31.1513C29.5718 40.4675 27.9783 39.8477 26.7725 38.6525C24.9259 36.7869 24.5099 34.4341 25.4379 32.086C26.0004 30.6349 27.3619 29.4514 28.2559 27.9733C29.2273 26.3778 29.737 25.0769 29.8776 22.3015V22.2616C29.737 19.4814 29.2273 18.1923 28.2559 16.5768C27.3619 15.1152 26.0004 13.9035 25.4379 12.4759C24.5099 10.1325 24.9259 7.7527 26.7725 5.90592C27.9783 4.70252 29.5718 4.0791 31.1513 4.0791H31.1841Z" fill="#59E0FF"/>
<path fill-rule="evenodd" clip-rule="evenodd" d="M53.8447 4.58443L54.0685 6.26333C55.2016 5.0294 57.0634 4.07959 58.992 4.07959C61.0121 4.07959 62.3726 5.0294 63.0357 6.29267C64.4218 4.93313 66.2204 4.07959 68.2768 4.07959C71.5577 4.07959 73.2333 5.88175 73.2333 9.77255V19.9293H70.3602V10.3431C70.3602 9.01294 70.202 8.22398 69.7251 7.65692C69.3162 7.14855 68.6506 6.79986 67.4906 6.79986C66.2557 6.79986 64.7992 7.43503 63.6626 8.70299C63.7294 9.26537 63.7294 9.93222 63.7294 10.5662V19.9293H60.854V10.5005C60.854 8.34961 60.5411 6.79986 58.2328 6.79986C56.8443 6.79986 55.3023 7.65692 54.2852 8.8521V19.9293H51.4168V4.58443H53.8447Z" fill="#000045"/>
<path fill-rule="evenodd" clip-rule="evenodd" d="M79.2974 12.272C79.2974 16.1287 80.5934 18.0025 83.3739 18.0025C86.1485 18.0025 87.4105 16.1287 87.4105 12.272C87.4105 8.37881 86.1485 6.51324 83.3739 6.51324C80.5934 6.51324 79.2974 8.37881 79.2974 12.272ZM76.2959 12.2068C76.2959 7.01628 78.6346 4.07764 83.338 4.07764C88.0799 4.07764 90.4128 6.9881 90.4128 12.1797V12.3112C90.4128 17.4947 88.0799 20.4391 83.338 20.4391C78.6346 20.4391 76.2959 17.4947 76.2959 12.3112V12.2068Z" fill="#000045"/>
<path fill-rule="evenodd" clip-rule="evenodd" d="M95.8332 4.58443L96.0511 6.26333C97.1912 5.0294 99.0554 4.07959 100.981 4.07959C103.001 4.07959 104.359 5.0294 105.024 6.29267C106.408 4.93313 108.216 4.07959 110.263 4.07959C113.544 4.07959 115.219 5.88175 115.219 9.77255V19.9293H112.346V10.3431C112.346 9.01294 112.183 8.22398 111.712 7.65692C111.305 7.14855 110.643 6.79986 109.476 6.79986C108.239 6.79986 106.79 7.43503 105.65 8.70299C105.718 9.26537 105.718 9.93222 105.718 10.5662V19.9293H102.841V10.5005C102.841 8.34961 102.526 6.79986 100.222 6.79986C98.8352 6.79986 97.2872 7.65692 96.2725 8.8521V19.9293H93.4041V4.58443H95.8332Z" fill="#000045"/>
<path fill-rule="evenodd" clip-rule="evenodd" d="M128.613 11.2904C128.517 8.4422 127.636 6.51324 125.138 6.51324C122.458 6.51324 121.385 8.70402 121.286 11.2904H128.613ZM118.285 12.2737C118.285 7.84398 120.402 4.07764 125.168 4.07764C129.557 4.07764 131.577 6.9564 131.577 12.3112C131.577 12.6869 131.577 13.0637 131.542 13.4466H121.317C121.54 16.323 122.894 17.9655 125.802 17.9655C127.379 17.9655 129.212 17.5851 130.381 17.0825L130.63 19.4213C129.242 20.0858 127.439 20.4344 125.734 20.4344C120.81 20.4344 118.285 17.7447 118.285 12.3359V12.2737Z" fill="#000045"/>
<path fill-rule="evenodd" clip-rule="evenodd" d="M137.064 4.58443L137.288 6.35842C138.55 5.05992 140.476 4.07959 142.654 4.07959C144.298 4.07959 145.53 4.51986 146.348 5.37222C147.295 6.32672 147.643 7.68744 147.643 9.96509V19.9293H144.767V10.4089C144.767 8.95071 144.611 8.12888 144.11 7.52543C143.633 7.02058 142.913 6.76699 141.866 6.76699C140.382 6.76699 138.613 7.52543 137.446 8.82627V19.9293H134.569V4.58443H137.064Z" fill="#000045"/>
<mask id="mask0_39_270" style="mask-type:luminance" maskUnits="userSpaceOnUse" x="150" y="0" width="10" height="21">
<path fill-rule="evenodd" clip-rule="evenodd" d="M159.166 0H150.172V20.4329H159.166V0Z" fill="white"/>
</mask>
<g mask="url(#mask0_39_270)">
<path fill-rule="evenodd" clip-rule="evenodd" d="M155.315 -0.000488281V4.58416H159.076L158.914 6.92522H155.315V14.9615C155.315 17.5221 155.977 18.0939 157.715 18.0939C158.184 18.0939 158.759 18.0294 159.111 17.9672L159.166 20.2413C158.604 20.3704 157.715 20.4326 157.34 20.4326C153.52 20.4326 152.445 18.7267 152.445 15.2445V6.92522H150.172V4.58416H152.445V0.410429L155.315 -0.000488281Z" fill="#000045"/>
</g>
<path fill-rule="evenodd" clip-rule="evenodd" d="M165.167 4.58496V13.2248C165.167 14.8719 165.231 15.5929 165.484 16.322C165.924 17.5828 167.189 18.002 168.639 18.002C170.126 18.002 171.356 17.5828 171.794 16.322C172.05 15.5929 172.113 14.8719 172.113 13.2248V4.58496H174.988V13.604C174.988 18.5995 173.315 20.4334 168.639 20.4334C163.996 20.4334 162.293 18.5995 162.293 13.604V4.58496H165.167Z" fill="#000045"/>
<mask id="mask1_39_270" style="mask-type:luminance" maskUnits="userSpaceOnUse" x="178" y="4" width="23" height="16">
<path fill-rule="evenodd" clip-rule="evenodd" d="M200.431 19.9293V4.07959H178.614V19.9293H200.431Z" fill="white"/>
</mask>
<g mask="url(#mask1_39_270)">
<path fill-rule="evenodd" clip-rule="evenodd" d="M181.046 4.58443L181.265 6.26333C182.401 5.0294 184.265 4.07959 186.19 4.07959C188.211 4.07959 189.566 5.0294 190.231 6.29267C191.617 4.93313 193.418 4.07959 195.474 4.07959C198.759 4.07959 200.431 5.88175 200.431 9.77255V19.9293H197.555V10.3431C197.555 9.01294 197.401 8.22398 196.925 7.65692C196.515 7.14855 195.852 6.79986 194.686 6.79986C193.455 6.79986 192.002 7.43503 190.866 8.70299C190.927 9.26537 190.927 9.93222 190.927 10.5662V19.9293H188.053V10.5005C188.053 8.34961 187.735 6.79986 185.433 6.79986C184.043 6.79986 182.497 7.65692 181.487 8.8521V19.9293H178.614V4.58443H181.046Z" fill="#000045"/>
</g>
<path fill-rule="evenodd" clip-rule="evenodd" d="M60.0887 33.2904C60.0078 30.9211 59.2743 29.315 57.2003 29.315C54.9658 29.315 54.0753 31.1348 54.0003 33.2904H60.0887ZM51.5009 34.1073C51.5009 30.4266 53.255 27.2896 57.2155 27.2896C60.8654 27.2896 62.5445 29.6881 62.5445 34.1308C62.5445 34.4466 62.5445 34.7671 62.5234 35.0723H54.0142C54.1971 37.4674 55.329 38.8411 57.7462 38.8411C59.0573 38.8411 60.5842 38.5229 61.5473 38.1002L61.7664 40.0503C60.6076 40.6033 59.1066 40.9003 57.6912 40.9003C53.596 40.9003 51.5009 38.6579 51.5009 34.1601V34.1073Z" fill="#000045"/>
<path fill-rule="evenodd" clip-rule="evenodd" d="M67.3928 27.7122L67.5638 29.1821C68.6208 28.1138 70.2178 27.2896 72.0376 27.2896C73.4025 27.2896 74.4208 27.6605 75.1098 28.3696C75.8901 29.1621 76.1796 30.2904 76.1796 32.1865V40.4671H73.7963V32.5563C73.7963 31.3435 73.658 30.6638 73.2467 30.1519C72.8542 29.7397 72.2508 29.5272 71.379 29.5272C70.1452 29.5272 68.6759 30.1519 67.7044 31.2426V40.4671H65.3106V27.7122H67.3928Z" fill="#000045"/>
<path fill-rule="evenodd" clip-rule="evenodd" d="M87.4976 33.2904C87.4168 30.9211 86.681 29.315 84.6152 29.315C82.3795 29.315 81.482 31.1348 81.4035 33.2904H87.4976ZM78.9164 34.1073C78.9164 30.4266 80.6786 27.2896 84.6379 27.2896C88.2866 27.2896 89.9669 29.6881 89.9669 34.1308C89.9669 34.4466 89.9669 34.7671 89.9435 35.0723H81.4332C81.6207 37.4674 82.7468 38.8411 85.1617 38.8411C86.481 38.8411 88.0031 38.5229 88.9733 38.1002L89.1843 40.0503C88.0288 40.6033 86.5278 40.9003 85.1066 40.9003C81.0161 40.9003 78.9164 38.6579 78.9164 34.1601V34.1073Z" fill="#000045"/>
<path fill-rule="evenodd" clip-rule="evenodd" d="M94.8001 27.7134C95.0086 29.4732 94.9818 29.4732 95.0086 29.4732C95.8769 28.3708 97.3182 27.5043 99.1015 27.4233C99.1015 27.8202 99.0746 29.4521 99.0746 29.8454C97.4307 29.8688 96.0339 30.5287 95.1071 31.4468V40.4681H92.7238V27.7134H94.8001Z" fill="#000045"/>
<mask id="mask2_39_270" style="mask-type:luminance" maskUnits="userSpaceOnUse" x="100" y="26" width="13" height="20">
<path fill-rule="evenodd" clip-rule="evenodd" d="M100.938 45.9996H112.52V26.5835H100.938V45.9996Z" fill="white"/>
</mask>
<g mask="url(#mask2_39_270)">
<path fill-rule="evenodd" clip-rule="evenodd" d="M104.136 40.3428C103.663 40.8641 103.426 41.5837 103.426 42.2882C103.426 43.4188 104.267 44.1855 106.317 44.1855C108.232 44.1855 109.5 43.4763 109.5 42.105C109.5 41.5837 109.389 41.1823 108.916 40.8852C108.526 40.6035 107.683 40.4684 106.239 40.4156L104.136 40.3428ZM106.104 34.4702C108.078 34.4702 108.818 33.6307 108.818 31.7933C108.818 29.9783 108.078 29.1106 106.104 29.1106C104.192 29.1106 103.426 29.9783 103.426 31.7933C103.426 33.6307 104.192 34.4702 106.104 34.4702ZM100.939 31.7376C100.939 28.6874 103.143 27.2903 106.11 27.2903C107.536 27.2903 108.66 27.6026 109.636 28.213C110.028 27.7153 110.921 26.7949 112.521 26.5835V28.8495C111.943 28.9034 111.178 29.0291 110.659 29.3413C111.072 29.9777 111.311 30.7596 111.311 31.7376V31.8726C111.311 35.1012 108.875 36.2847 106.11 36.2847C105.535 36.2847 105.002 36.2353 104.452 36.1073C104.171 36.7355 103.831 37.5538 103.623 38.1831L106.608 38.257C108.532 38.3087 109.813 38.6011 110.549 39.1845C111.262 39.7117 111.727 40.6287 111.727 41.7863C111.727 44.6802 109.269 45.9999 106.11 45.9999C102.883 45.9999 101.153 44.7589 101.153 42.7877C101.153 41.8696 101.564 40.8845 102.331 40.186C101.52 40.1543 101.096 39.6589 101.096 39.0284C101.096 38.257 102.118 36.631 102.907 35.5756C101.704 34.8945 100.939 33.6301 100.939 31.8726V31.7376Z" fill="#000045"/>
</g>
<path fill-rule="evenodd" clip-rule="evenodd" d="M116.98 27.7124V35.2098C116.98 37.397 117.667 38.3609 119.55 38.3609C120.573 38.3609 121.762 38.0592 122.757 37.3431V27.7124H125.142V37.0566C125.142 37.9747 125.142 38.8881 125.116 39.7639C125.014 43.6324 123.442 45.9946 118.69 45.9946C118.219 45.9946 117.46 45.9218 116.848 45.8126L117.009 43.9658C117.403 44.0234 117.979 44.0809 118.423 44.0809C121.128 44.0809 122.757 43.2626 122.757 40.102V39.4247C121.625 40.2124 120.344 40.6034 118.95 40.6034C116.271 40.6034 114.591 39.1851 114.591 35.5233V27.7124H116.98Z" fill="#000045"/>
</svg>
