<svg width="110" height="43" viewBox="0 0 110 43" fill="none" xmlns="http://www.w3.org/2000/svg">
<g clip-path="url(#clip0_39_169)">
<rect width="110" height="43" fill="white"/>
<path d="M53.2233 13.6735C55.1545 11.7423 57.0856 11.0471 59.4803 11.0471C64.0379 11.0471 66.6643 13.6735 66.6643 18.9263V31.1313H61.1797V19.8533C61.1797 16.9951 60.2528 15.5274 58.3216 15.5274C56.6222 15.5274 55.6952 16.2226 53.9958 17.9221V31.1313H48.5112V15.0639C48.2795 15.0639 46.8118 14.8322 46.8118 14.8322V11.7423L52.8371 11.5106C52.9915 11.5106 53.2233 12.901 53.2233 13.6735ZM100.962 15.5274C99.4944 15.5274 98.1039 16.2226 96.4045 18.1538V26.5738C97.0997 26.8055 98.3357 27.269 99.4944 27.269C103.357 27.269 104.052 24.1791 104.052 21.2437C104.284 17.4586 103.357 15.5274 100.962 15.5274ZM96.6362 4.01758V13.1327C98.3357 11.6651 99.9578 10.9698 102.121 10.9698C106.91 10.9698 110 14.6004 110 20.5485C110 27.5007 106.138 31.5948 99.4171 31.5948C97.0224 31.5948 93.9326 31.1313 91.2289 30.3589V7.57095C90.9972 7.57095 89.2977 7.33921 89.2977 7.33921V4.24932L96.6362 4.01758ZM70.9901 12.2058C73.1531 11.5106 75.7795 10.9698 78.1741 10.9698C83.6587 10.9698 86.5941 13.3645 86.5941 17.9221V27.7325C87.0576 27.7325 88.5253 27.9642 88.5253 27.9642V31.0541L82.5 31.2858C82.5 31.2858 82.2682 30.3589 82.2682 29.8181C80.5688 31.2858 78.6376 31.9811 76.4747 31.9811C72.1489 31.9811 69.5224 29.5864 69.5224 25.724C69.5224 21.3982 72.8441 19.2353 79.3328 19.2353H81.264V18.5401C81.264 16.3771 80.8005 15.4502 77.6334 15.4502C75.934 15.4502 73.771 15.9136 72.1489 16.6861H71.6854L70.7584 12.592L70.9901 12.2058ZM74.7753 25.4151C74.7753 26.8827 75.7022 27.8097 77.4017 27.8097C78.8694 27.8097 79.7963 27.3462 81.264 26.1103V23.0204H79.3328C75.316 22.7886 74.7753 24.1791 74.7753 25.4151Z" fill="#070707"/>
<path d="M26.1095 0.463483L18.9256 9.11517L8.88343 4.32584C8.65169 4.32584 8.41994 4.0941 8.1882 4.32584C7.95646 4.32584 7.95646 4.55758 8.1882 5.02107L10.5056 16.0674L0.463483 20.8567C0.231741 20.8567 0 21.0885 0 21.3202C0 21.552 0.231741 21.7837 0.463483 21.7837L10.5056 26.8048L8.11095 37.8511V38.5463H8.80618L18.8483 33.757L25.8006 42.6405C26.0323 42.8722 26.264 43.1039 26.4958 42.8722C26.7275 42.8722 26.7275 42.6405 26.9593 42.4087L29.5857 31.5941H40.941C41.1728 31.5941 41.4045 31.5941 41.6362 31.3624C41.6362 31.1306 41.6362 30.8989 41.4045 30.6671L34.4522 21.7837L41.7135 12.9003C41.9452 12.6685 41.9452 12.4368 41.9452 12.2051C41.9452 11.9733 41.7135 11.9733 41.25 11.9733H38.3919C38.1601 11.9733 37.9284 11.9733 37.9284 12.2051L27.2683 23.4831H27.0365V23.2514C27.2683 23.0197 33.0618 15.8357 36.1517 12.2051V11.9733C36.1517 11.7416 36.1517 11.7416 35.9199 11.7416H32.2893C32.0576 11.7416 31.5941 11.9733 31.5941 12.2051C29.8947 14.1362 21.243 23.2514 21.0112 23.2514H20.8567V23.0197L29.7402 12.2051C29.9719 11.9733 29.9719 11.7416 29.9719 11.5098C29.9719 11.5098 27.5772 0.695225 27.5772 0.463483C27.5772 0.231742 27.3455 0 27.1138 0C26.3413 0.231742 26.1095 0.231742 26.1095 0.463483Z" fill="#A91F23"/>
<path d="M7.18399 22.4792C4.55759 22.4792 2.16292 22.0157 0 21.0115C0 21.0115 0.231742 21.0115 0.231742 20.7798L10.2739 15.9905L7.87922 4.94411V4.24889H8.57444L18.6166 9.03821L25.8006 0.386527C26.0323 0.154785 26.2641 0.154785 26.2641 0.154785C26.2641 1.08175 26.4958 1.85422 26.4958 2.78119C26.8048 13.673 17.9214 22.4792 7.18399 22.4792ZM34.5295 12.9006C34.7612 12.6688 34.993 12.2053 35.2247 11.9736H31.9031C31.6714 11.9736 31.4396 12.2053 31.2079 12.2053C31.2079 12.6688 31.2079 13.4413 31.6714 13.673C32.1348 14.3683 33.5253 13.9048 34.5295 12.9006ZM37.8511 11.7419C37.6194 11.7419 37.3877 11.7419 37.3877 11.9736L37.1559 12.2053C37.1559 12.6688 37.3876 12.9006 37.6194 13.1323C38.3146 13.8275 39.7823 13.3641 40.4775 12.4371C40.7093 12.2053 40.7093 11.9736 40.941 11.7419H37.8511Z" fill="#EC2024"/>
<path d="M39.7822 12.6696H37.851C37.3875 12.6696 37.1558 12.9013 36.924 13.1331C33.2934 16.9954 27.3454 23.1752 27.1136 23.1752C26.4184 23.8704 25.8777 23.407 26.6501 22.7117C26.8819 22.48 31.6712 16.6865 34.5294 13.1331C34.5294 12.9013 34.7611 12.6696 34.5294 12.6696H31.6712C31.4395 12.6696 31.2077 12.6696 30.976 12.9013C27.3454 16.7637 21.1656 23.2525 20.9338 23.2525C20.2386 23.9477 19.6979 23.4842 20.4704 22.789C20.7021 22.5572 25.9549 16.0685 28.6586 12.4379C28.8903 12.2061 28.8903 11.9744 28.8903 11.5109L26.5729 1.85499C26.5729 1.62325 26.3412 1.39151 26.1094 1.85499L19.6206 9.73421C19.3889 9.96595 18.9254 10.1977 18.6937 9.96595L9.57851 5.40837C9.34677 5.40837 9.11503 5.40837 9.11503 5.64011L11.2779 15.6822C11.2779 15.914 11.2779 16.3775 10.8145 16.6092L1.62205 21.0895C1.39031 21.0895 1.39031 21.553 1.62205 21.553L10.7372 26.1106C10.969 26.1106 11.2007 26.5741 11.2007 27.0376L8.80604 36.9252C8.80604 37.157 8.80604 37.3887 9.26952 37.157L18.6164 32.8311C18.8482 32.8311 19.3117 32.8311 19.5434 33.0629L25.8004 40.9421C26.0322 41.1738 26.2639 41.1738 26.2639 40.9421L28.6586 31.1317C28.6586 30.8999 29.1221 30.6682 29.3538 30.6682H39.3959C39.6277 30.6682 39.8594 30.4365 39.6277 30.2047L33.3706 22.0165C33.1389 21.7848 33.1389 21.3213 33.3706 21.0895L39.8594 13.2103C40.2456 12.9013 40.0139 12.6696 39.7822 12.6696Z" fill="url(#paint0_radial_39_169)"/>
</g>
<defs>
<radialGradient id="paint0_radial_39_169" cx="0" cy="0" r="1" gradientUnits="userSpaceOnUse" gradientTransform="translate(26.1635 36.6394) scale(34.9466 34.9466)">
<stop offset="0.49" stop-color="#DE1F26"/>
<stop offset="0.74" stop-color="#E84B4F"/>
<stop offset="1" stop-color="#F27778"/>
</radialGradient>
<clipPath id="clip0_39_169">
<rect width="110" height="43" fill="white"/>
</clipPath>
</defs>
</svg>
