<svg width="200" height="50" viewBox="0 0 200 50" fill="none" xmlns="http://www.w3.org/2000/svg">
<path d="M34.9428 0.289062H35.5411C36.0731 0.378607 36.5929 0.610328 36.9815 0.989012C37.4657 1.57754 37.4712 2.4559 37.1167 3.11073C36.3415 4.66238 35.048 5.85243 33.9716 7.18397C31.153 10.91 28.8124 14.9709 26.588 19.0722C24.453 23.0928 22.4232 27.1797 20.7103 31.4013C20.4466 32 19.9324 32.5373 19.2562 32.62C18.4886 32.7089 17.7182 32.4696 17.0249 32.1566C16.4499 31.8975 16.2586 31.2297 16.2539 30.6473C16.3467 28.1483 15.3742 25.7914 14.8838 23.3778C14.2398 20.2123 13.9891 16.9778 13.9509 13.7515C11.5413 18.2895 9.15775 22.8426 6.86842 27.4415C6.3275 28.5372 5.74493 29.6473 5.57623 30.8729C5.52364 31.1237 5.59467 31.3725 5.66638 31.6118C5.38773 32.2304 4.9397 32.8039 4.29224 33.0602C3.34632 33.4574 2.25493 33.3213 1.32335 32.9502C0.906733 32.7971 0.57549 32.445 0.482605 32.0062V31.4047C0.712085 30.3131 1.32471 29.3622 1.86904 28.406C3.43784 25.7292 5.00731 23.0538 6.54196 20.3579C8.28559 17.3592 9.84141 14.2546 11.3201 11.1191C11.9511 9.82792 12.3336 8.42187 12.391 6.98369C13.4591 6.68498 14.6195 6.75744 15.659 7.13066C16.4909 7.4239 16.9683 8.292 17.0167 9.13959C17.2735 12.2511 17.3678 15.3749 17.5918 18.4891C17.8684 21.1406 18.5166 23.7408 19.3013 26.2829C22.4464 19.3517 25.9699 12.5867 29.9619 6.10466C30.8449 4.62478 31.683 3.10868 32.7593 1.75663C33.3112 1.06215 34.0419 0.438075 34.9428 0.289062Z" fill="black"/>
<path d="M122.672 5.63565C123.748 5.14896 124.975 4.87691 126.147 5.15512C127.65 5.51124 128.876 6.74367 129.311 8.21739C129.783 9.79365 129.605 11.4882 129.193 13.0569C128.686 14.9305 127.836 16.7091 126.71 18.2874C126.215 18.9853 125.464 19.6087 124.564 19.5806C123.852 19.5991 123.29 19.0543 122.939 18.4904C122.506 17.7501 122.564 16.8396 122.82 16.0508C123.008 15.9804 123.206 15.9114 123.357 15.7726C123.953 15.2593 124.417 14.6147 124.85 13.9633C125.339 13.2175 125.798 12.4294 126.001 11.5545C126.17 10.8545 126.123 10.0486 125.657 9.46896C125.385 9.09096 124.899 8.89137 124.44 8.96861C123.613 9.09233 122.921 9.62139 122.296 10.1443C120.948 11.3371 119.852 12.7794 118.813 14.2421C116.717 17.2976 114.706 20.5123 113.733 24.1248C113.468 25.2581 113.228 26.5036 113.676 27.6218C113.923 28.2719 114.572 28.6629 115.237 28.7599C116.594 28.9664 117.967 28.6957 119.288 28.3901C121.129 27.9335 122.921 27.2896 124.656 26.5248C125.813 26.0066 126.96 25.4475 128.003 24.7222C128.794 24.1946 129.206 23.2909 129.935 22.6949C131.415 21.3271 133.607 21.001 135.52 21.4522C136.591 21.7919 137.224 22.8446 137.568 23.8528C138.725 24.5753 140.162 24.7257 141.492 24.5466C143.099 24.336 144.668 23.498 145.546 22.107C146.211 21.1589 146.3 19.9067 146.019 18.8096C146.787 18.3489 147.733 18.163 148.61 18.3721C149.085 18.4842 149.494 18.7959 149.751 19.2101C150.481 20.3154 151.421 21.3414 152.651 21.8883C153.636 22.3264 154.754 22.4105 155.807 22.2068C156.648 22.0434 157.528 21.8432 158.378 22.0585C159.666 22.4392 159.95 24.2335 159.142 25.1959C158.525 26.0736 157.883 26.9458 157.428 27.9226C157.295 28.2117 157.176 28.5344 157.242 28.8577C157.428 29.1202 157.782 29.019 158.05 28.9848C159.015 28.7982 159.938 28.4366 160.846 28.0661C163.022 27.1502 165.103 26.0203 167.098 24.7598C168.904 23.6019 170.656 22.3421 172.257 20.9101C172.727 20.2102 172.716 19.3052 172.772 18.4917C173.819 18.1835 174.978 18.219 175.991 18.6353C176.489 18.841 176.978 19.2272 177.069 19.7918C177.27 20.798 176.871 21.8001 176.319 22.6258C177.887 21.8493 179.601 21.258 181.368 21.2697C182.398 21.2895 183.499 21.6244 184.156 22.4624C184.619 23.0448 184.667 23.8514 184.483 24.5479C184.259 25.3586 183.804 26.0811 183.294 26.7394C182.547 27.6813 181.666 28.5262 180.659 29.1851C185.788 28.1195 190.709 25.9048 194.802 22.6156C195.289 22.1815 195.934 21.7646 196.017 21.0585C197.205 20.8322 198.53 21.3442 199.157 22.3996C199.49 22.9273 199.497 23.6381 199.155 24.1638C198.71 24.9013 197.885 25.254 197.191 25.7045C193.207 28.034 188.991 30.0245 184.536 31.2685C182.465 31.8523 180.367 32.3889 178.221 32.5939C177.21 32.6678 176.091 32.7272 175.214 32.1305C174.589 31.7265 174.454 30.8489 174.743 30.2002C174.942 29.7545 175.362 29.4681 175.767 29.2234C176.465 28.8146 177.192 28.4346 177.797 27.8877C178.722 27.0285 179.567 26.0415 180.035 24.8528C177.909 24.7947 175.868 25.7906 174.415 27.3074C172.792 28.9951 171.635 31.0621 170.605 33.1483C169.458 35.4464 168.5 37.8326 167.63 40.2469C166.87 42.3645 166.141 44.4965 165.579 46.6763C165.406 47.2819 165.398 47.9532 165.042 48.4939C164.622 49.1507 163.888 49.5629 163.125 49.662H162.421C161.804 49.5766 161.128 49.2622 160.955 48.6101C160.708 47.6415 161.049 46.6469 161.364 45.7351C162.144 43.7131 163.182 41.8047 164.07 39.8299C166.109 35.4983 167.955 31.0744 170.14 26.8132C168.642 27.7189 167.111 28.5713 165.559 29.382C163.276 30.5447 160.941 31.6582 158.453 32.3048C157.436 32.5427 156.372 32.7402 155.333 32.5276C154.39 32.3499 153.614 31.572 153.386 30.6479C153.206 29.9828 153.3 29.2801 153.476 28.6239C153.768 27.5617 154.292 26.5849 154.814 25.6218C152.661 25.576 150.566 24.7448 148.867 23.4413C148.285 24.3108 147.591 25.1071 146.791 25.7817C145.123 27.196 142.96 27.9841 140.78 28.0368C139.589 28.0593 138.364 27.9267 137.274 27.4195C135.984 29.5426 134.222 31.5905 131.779 32.3609C130.686 32.678 129.382 32.8694 128.398 32.1592C127.474 31.462 127.143 30.2343 127.159 29.1236C123.992 30.6219 120.728 32.0731 117.232 32.5645C115.356 32.8106 113.289 32.743 111.674 31.6438C110.399 30.7976 109.588 29.3512 109.42 27.8413C109.157 25.7277 109.734 23.6149 110.465 21.649C111.23 19.6353 112.23 17.7214 113.318 15.8669C114.83 13.3016 116.519 10.8162 118.597 8.67332C119.79 7.46618 121.118 6.34858 122.672 5.63565ZM133.702 25.524C132.714 26.0599 131.812 26.7367 130.888 27.3744C130.446 27.6745 130.156 28.3443 130.464 28.8297C130.71 29.153 131.15 29.0081 131.463 28.8789C132.28 28.5098 132.922 27.8413 133.454 27.1365C133.723 26.7503 134.003 26.3334 134.048 25.8535C134.095 25.6594 133.874 25.4721 133.702 25.524Z" fill="black"/>
<path d="M37.3284 16.0253C38.9204 15.1079 40.7487 14.6144 42.5845 14.5796C43.5749 14.5303 44.6253 14.7648 45.3895 15.4278C46.2248 16.1326 46.5055 17.3629 46.179 18.3889C45.8082 19.5797 44.9231 20.5182 44.0038 21.3186C41.4365 23.4547 38.4129 24.9735 35.2965 26.1314C35.4891 27.2463 36.14 28.2942 37.144 28.8451C38.5728 29.6367 40.2952 29.6401 41.8674 29.3865C44.4286 28.9114 46.7691 27.6674 48.9465 26.2811C50.4203 25.305 51.9543 24.3146 53.0074 22.8627C53.2806 22.5169 53.4049 22.0678 53.1973 21.657C54.0811 21.2345 55.1772 21.0794 56.063 21.5838C56.8737 22.0247 57.2746 22.9748 57.2781 23.8669C57.2603 24.7972 57.3163 25.7364 57.5451 26.64C57.6605 27.0604 57.8026 27.4958 58.1106 27.8164C58.2902 28.003 58.5873 28.1165 58.8277 27.9729C59.3686 27.6927 59.7655 27.2108 60.1739 26.7719C60.85 26.005 61.4838 25.2032 62.1422 24.4212C62.5295 23.9414 62.9816 23.4978 63.2295 22.9215C63.528 22.3125 63.8196 21.5708 64.5101 21.3227C65.0851 21.199 65.7565 21.2468 66.2155 21.6529C66.6492 22.0295 66.8219 22.6194 66.8636 23.1738C66.8978 24.6324 66.8698 26.1171 67.2331 27.5416C67.3465 27.8916 67.4783 28.3735 67.897 28.4521C68.4181 28.3523 68.8005 27.9415 69.1789 27.6011C70.5319 26.2155 71.6417 24.6188 72.8738 23.1293C73.3833 22.5223 73.957 21.847 74.7841 21.7117C76.0448 21.5011 77.1444 22.3672 78.3854 22.4027C79.7882 22.4294 81.2894 22.3337 82.5092 21.5633C83.1485 21.214 83.9318 21.1942 84.6244 21.3808C85.4487 21.6037 86.1522 22.4048 86.0552 23.29C86.0176 24.1109 85.3053 24.7165 84.5834 24.9824C82.195 25.9079 79.4809 26.3071 77.0071 25.4739C76.1814 25.1376 75.5121 25.8765 74.9733 26.3905C73.3881 28.0809 72.0508 30.0263 70.1767 31.4269C69.2786 32.0981 68.2132 32.755 67.0432 32.619C66.0871 32.5246 65.303 31.8554 64.7839 31.0851C64.1795 30.1739 63.808 29.124 63.584 28.0584C62.5158 29.5109 61.3179 30.9183 59.7853 31.8965C59.0053 32.3736 58.086 32.7475 57.1544 32.606C56.3506 32.4624 55.7434 31.8377 55.335 31.1657C54.5837 29.9265 54.2327 28.4992 53.939 27.0932C51.5725 28.705 49.0817 30.1568 46.4229 31.2307C44.1766 32.1521 41.7602 32.768 39.3172 32.6463C37.2717 32.5732 35.0978 32.12 33.5399 30.7057C32.4157 29.7112 31.7662 28.2627 31.6112 26.7835C30.5314 26.9059 29.3861 26.8772 28.3855 26.4103C27.6226 26.0535 26.9731 25.3296 26.9369 24.4554C26.9253 23.4424 27.5782 22.3863 28.617 22.1771C28.7878 22.6173 29.2925 22.7575 29.7084 22.8518C30.4235 22.9653 31.1673 22.9851 31.8796 22.8402C32.0606 22.8251 32.064 22.6126 32.1303 22.4868C33.1165 19.8586 34.8608 17.432 37.3284 16.0253ZM39.8458 18.4074C38.247 19.1989 36.7718 20.389 35.9426 21.9987C37.7272 21.3576 39.4859 20.6029 41.0649 19.5421C41.4856 19.227 41.9282 18.864 42.1133 18.3534C42.1795 18.0793 41.9077 17.8777 41.6584 17.8852C41.0199 17.8934 40.4168 18.1449 39.8458 18.4074Z" fill="black"/>
<path d="M93.0748 14.7611C94.4476 14.5848 95.8969 14.4679 97.2252 14.9457C97.9553 15.2 98.6704 15.8069 98.71 16.6299C98.7414 17.6908 97.9007 18.7831 96.8066 18.8665C96.0813 18.9608 95.3826 18.7277 94.6873 18.5664C93.6027 18.4003 92.426 18.334 91.407 18.8084C90.7793 19.0955 90.5963 19.8351 90.5485 20.4632C90.5382 21.6348 91.1365 22.6984 91.7813 23.6383C92.9287 25.2713 94.3554 26.6767 95.6517 28.1866C96.2247 28.8968 96.4835 29.9119 96.1407 30.78C95.6681 31.8668 94.5432 32.7677 93.3091 32.618C90.248 32.2551 87.193 31.7916 84.1135 31.6071C83.3527 31.5626 82.5003 31.5483 81.885 31.0349C81.4041 30.6638 81.5127 29.9816 81.7006 29.4826C82.0864 28.4361 82.9483 27.4545 84.0923 27.2666C84.7453 27.9132 85.6666 28.1395 86.5394 28.3144C88.2947 28.6425 90.1045 28.8852 91.8878 28.6521C91.0327 27.6432 90.2261 26.5967 89.3861 25.5762C88.335 24.2993 87.3624 22.8748 87.0032 21.235C86.6521 19.6813 87.1466 17.969 88.2872 16.8555C89.5472 15.578 91.3435 15.0229 93.0748 14.7611Z" fill="black"/>
</svg>
