<svg width="150" height="45" viewBox="0 0 150 45" fill="none" xmlns="http://www.w3.org/2000/svg">
<g clip-path="url(#clip0_39_155)">
<path d="M10.967 22.1835C10.967 15.9237 16.0896 10.8596 22.4009 10.8596C28.7123 10.8596 33.8349 15.9237 33.8349 22.1835C33.8349 28.4433 28.7123 33.5073 22.4009 33.5073C16.0896 33.5073 10.967 28.4433 10.967 22.1835ZM22.4009 0C10.0189 0 0 9.93123 0 22.1835C0 29.5264 3.59434 36.0253 9.14151 40.0625C12.8491 37.3617 17.434 35.7581 22.3868 35.7581C27.3396 35.7581 31.9245 37.3617 35.6321 40.0625C41.1792 36.0253 44.7736 29.5264 44.7736 22.1835C44.7736 9.93123 34.7547 0 22.3726 0H22.4009ZM64.2453 17.443C61.5991 17.443 59.434 19.6233 59.434 22.1694C59.434 24.7155 61.5991 26.9381 64.2453 26.9381C66.8915 26.9381 69.0991 24.7577 69.0991 22.1694C69.0991 19.6233 66.934 17.443 64.2453 17.443ZM64.2453 31.2285C59.1085 31.2285 54.9906 27.1491 54.9906 22.1694C54.9906 17.1897 59.1085 13.1525 64.2453 13.1525C69.3821 13.1525 73.5425 17.1616 73.5425 22.1694C73.5425 27.1772 69.4245 31.2285 64.2453 31.2285ZM77.2076 30.7502H81.7217V22.0147C81.7217 19.0325 82.6698 17.4289 88.4434 17.4289V13.1385C85.0613 13.1385 83.4057 13.5042 81.7217 14.7421V13.4761H77.2076V30.7502ZM91.7972 30.7502H96.3113V13.4761H91.7972V30.7502ZM124.075 30.7502H128.59V13.4761H124.075V30.7502ZM145.486 30.7502H150V20.7768C150 15.347 146.689 13.1385 142.882 13.1385C140.491 13.1385 139.288 14.0106 138.283 14.7421V13.4761H133.769V30.7502H138.283V21.4379C138.283 18.1322 140.08 17.4289 141.877 17.4289C143.675 17.4289 145.472 18.1604 145.472 21.5083V30.7502H145.486ZM114.623 36.4895C114.34 38.8387 112.302 40.7237 109.811 40.7237C107.165 40.7237 105 38.5433 105 35.955C105 33.3667 107.165 31.2285 109.811 31.2285C112.302 31.2285 114.354 33.1135 114.623 35.4204C114.651 35.5892 114.651 35.7721 114.651 35.955C114.651 36.1379 114.651 36.3207 114.623 36.5036M105 22.1694C105 19.6233 107.165 17.443 109.811 17.443C112.302 17.443 114.354 19.3279 114.623 21.6349C114.651 21.8178 114.651 21.9866 114.651 22.1694C114.651 22.3523 114.651 22.5352 114.623 22.704C114.34 25.0531 112.302 26.9381 109.811 26.9381C107.165 26.9381 105 24.7577 105 22.1694ZM119.108 22.1694V13.4761H114.651V14.4467C114.651 14.4467 114.637 14.4326 114.623 14.4186C113.236 13.6027 111.58 13.1385 109.811 13.1385C104.675 13.1385 100.557 17.1475 100.557 22.1694C100.557 24.9265 101.816 27.4023 103.825 29.0622C101.83 30.708 100.557 33.1697 100.557 35.9409C100.557 40.9206 104.675 45 109.811 45C114.948 45 119.108 40.9206 119.108 35.9409C119.108 33.1697 117.849 30.708 115.84 29.0622C117.849 27.4023 119.108 24.9265 119.108 22.1694Z" fill="#FF6124"/>
</g>
<defs>
<clipPath id="clip0_39_155">
<rect width="150" height="45" fill="white"/>
</clipPath>
</defs>
</svg>
