<svg width="179" height="36" viewBox="0 0 179 36" fill="none" xmlns="http://www.w3.org/2000/svg">
<g clip-path="url(#clip0_39_170)">
<rect width="179" height="36" fill="white"/>
<g clip-path="url(#clip1_39_170)">
<mask id="mask0_39_170" style="mask-type:luminance" maskUnits="userSpaceOnUse" x="0" y="0" width="179" height="36">
<path d="M179 0H0V36H179V0Z" fill="white"/>
</mask>
<g mask="url(#mask0_39_170)">
<path d="M13.4696 36H49.717L20.6708 6.28536C16.8001 2.34293 11.551 0 6.07746 0H0L0.452832 1.20993L2.46505 6.58812L13.4696 36Z" fill="url(#paint0_linear_39_170)"/>
<path d="M2.4651 6.58818C6.43363 13.4911 16.8476 14.2198 17.9807 24.9541C18.0272 25.3956 18.3596 25.7495 18.7906 25.8184C24.792 26.7736 30.6374 29.2907 35.7161 33.438L35.7207 33.4417C35.7542 33.4691 35.7889 33.482 35.8339 33.482C35.8787 33.482 35.9236 33.4654 35.9587 33.4312C36.0312 33.3611 36.0339 33.2444 35.965 33.1706C32.4481 29.4054 28.1506 26.3969 23.3268 24.4189L21.8587 23.8171C21.1034 23.5075 20.5796 22.7444 20.602 21.8668C20.6844 18.6595 28.13 19.3118 28.8849 17.7702L29.0149 17.5049C27.4817 16.1704 25.6602 15.1666 23.6537 14.6053C23.6359 14.6826 23.5872 15.0568 23.9954 15.7337C24.4394 16.4701 23.5096 17.641 22.1562 16.3778L22.0423 16.2716C11.9818 6.8811 4.43866 11.7507 0.452881 1.20996L2.4651 6.58818Z" fill="white"/>
<path d="M26.6586 17.3304C26.6586 17.3304 25.0088 17.4141 23.9954 15.7334C24.2969 16.2334 23.9645 16.9341 23.2966 16.9362V19.4949C24.3814 19.1739 25.6188 18.9773 26.6586 18.7545V17.3304Z" fill="url(#paint1_linear_39_170)"/>
<path d="M20.0361 26.0391C25.5986 27.1296 30.9896 29.5775 35.7161 33.4375C25.1789 24.2676 20.3778 25.9255 20.0361 26.0391Z" fill="url(#paint2_linear_39_170)"/>
<path d="M4.58396 7.06818C2.94663 5.88228 1.56185 4.14278 0.452881 1.20996L2.4651 6.58818C6.43334 13.4905 16.8455 14.2198 17.9804 24.9506C16.8349 11.2546 10.9288 13.3016 4.58396 7.06818Z" fill="url(#paint3_linear_39_170)"/>
<path d="M53.3968 29.392C46.2318 29.392 41.6818 25.596 41.6818 20.8353C41.6818 15.991 46.4995 12.2788 53.6025 12.2788C60.7058 12.2788 65.5234 16.0119 65.5234 20.6468C65.5234 22.7232 64.6173 24.4218 62.8879 25.8477H67.1085L66.0999 27.6094C65.4616 28.7209 64.6791 29.392 62.9909 29.392H53.3968ZM53.6025 25.512C57.5143 25.512 60.8088 23.5408 60.8088 20.8353C60.8088 18.1299 57.5143 16.1588 53.6025 16.1588C49.6907 16.1588 46.3965 18.1299 46.3965 20.8353C46.3965 23.5408 49.6907 25.512 53.6025 25.512Z" fill="#323232"/>
<path d="M84.71 26.4978H73.4277L71.822 29.3918H67.1479L74.9721 15.5924C75.5898 14.5019 76.4748 13.6631 78.2454 13.6631H79.9953C81.7665 13.6631 82.6515 14.5019 83.2691 15.5924L91.0927 29.3918H86.3163L84.71 26.4978ZM75.3419 23.0372H82.7951L79.3364 16.7666C79.254 16.6196 79.1922 16.5781 79.0685 16.5781C78.9449 16.5781 78.8836 16.6199 78.8012 16.7666L75.3419 23.0372Z" fill="#323232"/>
<path d="M113.368 13.6626V29.3917H109.188L96.9179 18.9688V29.3917H92.7385V13.6626H95.3529C96.6912 13.6626 97.3707 14.0189 98.1327 14.69L109.189 24.0649V13.6626H113.368Z" fill="#323232"/>
<path d="M128.231 17.2069V29.3917H124.052V17.2069H115.487V13.6626H136.797V17.2069H128.231Z" fill="#323232"/>
<path d="M150.713 26.4978H139.43L137.825 29.3918H133.151L140.975 15.5924C141.592 14.5019 142.477 13.6631 144.248 13.6631H145.998C147.769 13.6631 148.654 14.5019 149.272 15.5924L157.095 29.3918H152.319L150.713 26.4978ZM141.345 23.0372H148.798L145.339 16.7666C145.257 16.6196 145.195 16.5781 145.072 16.5781C144.948 16.5781 144.886 16.6199 144.804 16.7666L141.345 23.0372Z" fill="#323232"/>
<path d="M158.535 28.2596L158.144 28.1337L159.194 24.7154C162.2 25.701 165.411 26.0995 168.315 26.0995C173.071 26.0995 174.244 25.5333 174.244 24.9252C174.244 24.6735 174.079 24.4846 173.708 24.3587C173.235 24.191 171.918 23.9184 168.026 23.2685C163.723 22.5552 161.788 22.1989 160.367 21.5278C158.947 20.8566 158.082 19.787 158.082 18.2143C158.082 17.0189 158.659 16.0542 159.585 15.299C161.232 13.9989 164.052 13.4746 167.121 13.4746C171.074 13.4746 174.388 13.8103 178.074 14.7329L178.403 14.8378L177.518 18.1722C173.4 17.2703 171.115 17.0186 167.986 16.977C165.783 16.9561 164.259 17.1238 163.456 17.3752C163.003 17.5223 162.818 17.7318 162.818 17.9835C162.818 18.2143 162.962 18.4239 163.415 18.5706C163.909 18.7383 164.712 18.927 168.933 19.6193C173.503 20.3742 175.007 20.6889 176.263 21.1924C177.971 21.8635 179.001 23.1008 179.001 24.6526C179.001 26.6032 177.518 28.0501 174.945 28.8474C173.36 29.3298 171.239 29.6022 168.851 29.6022C165.103 29.6019 161.108 29.0984 158.535 28.2596Z" fill="#323232"/>
</g>
</g>
</g>
<defs>
<linearGradient id="paint0_linear_39_170" x1="31.5054" y1="35.8691" x2="6.7151" y2="0.325605" gradientUnits="userSpaceOnUse">
<stop stop-color="#BE0000"/>
<stop offset="0.3898" stop-color="#DE0000"/>
<stop offset="0.768" stop-color="#F60000"/>
<stop offset="1" stop-color="#FF0000"/>
</linearGradient>
<linearGradient id="paint1_linear_39_170" x1="24.8241" y1="19.6309" x2="25.1622" y2="15.8373" gradientUnits="userSpaceOnUse">
<stop offset="0.65" stop-color="white" stop-opacity="0"/>
<stop offset="0.7285" stop-color="#E0E0E0" stop-opacity="0.2617"/>
<stop offset="0.8148" stop-color="#C5C5C5" stop-opacity="0.5493"/>
<stop offset="0.8914" stop-color="#B5B5B5" stop-opacity="0.8047"/>
<stop offset="0.95" stop-color="#AFAFAF"/>
</linearGradient>
<linearGradient id="paint2_linear_39_170" x1="20.0361" y1="29.6448" x2="35.7161" y2="29.6448" gradientUnits="userSpaceOnUse">
<stop stop-color="white" stop-opacity="0"/>
<stop offset="0.0839" stop-color="#F1F1F1" stop-opacity="0.0932"/>
<stop offset="0.2921" stop-color="#D4D4D4" stop-opacity="0.3246"/>
<stop offset="0.4993" stop-color="#C0C0C0" stop-opacity="0.5548"/>
<stop offset="0.7032" stop-color="#B3B3B3" stop-opacity="0.7814"/>
<stop offset="0.9" stop-color="#AFAFAF"/>
</linearGradient>
<linearGradient id="paint3_linear_39_170" x1="0.45282" y1="13.0804" x2="17.9804" y2="13.0804" gradientUnits="userSpaceOnUse">
<stop offset="0.25" stop-color="white" stop-opacity="0"/>
<stop offset="0.4615" stop-color="#EDEDED" stop-opacity="0.282"/>
<stop offset="0.886" stop-color="#BDBDBD" stop-opacity="0.848"/>
<stop offset="1" stop-color="#AFAFAF"/>
</linearGradient>
<clipPath id="clip0_39_170">
<rect width="179" height="36" fill="white"/>
</clipPath>
<clipPath id="clip1_39_170">
<rect width="179" height="36" fill="white"/>
</clipPath>
</defs>
</svg>
