<svg width="197" height="57" viewBox="0 0 197 57" fill="none" xmlns="http://www.w3.org/2000/svg">
<g clip-path="url(#clip0_39_158)">
<path d="M161.286 20.1665C161.286 10.195 169.152 3.47048 177.293 3.47048C185.435 3.47048 193.301 10.195 193.301 20.1665C193.301 21.8214 193.081 23.3646 192.703 24.7961C194.057 22.4289 194.82 19.7266 194.82 16.6401C194.82 7.16441 186.954 0 177.293 0C167.632 0 159.766 7.16441 159.766 16.6401C159.766 19.7266 160.522 22.4289 161.884 24.7961C161.506 23.3646 161.286 21.8214 161.286 20.1665Z" fill="#EF4137"/>
<path d="M196.986 20.1669C196.986 18.903 196.876 17.688 196.663 16.5288C196.773 27.9388 187.821 34.2164 177.293 40.2775C166.766 34.2164 157.813 27.9388 157.923 16.5288C157.703 17.688 157.6 18.896 157.6 20.1669C157.6 31.8492 167.529 37.631 174.529 42.1C171.655 44.139 169.647 46.2897 169.647 49.432C169.647 50.9752 170.135 52.4067 170.947 53.5659C170.672 53.0701 170.623 52.4626 170.623 51.8551C170.623 48.0564 175.237 45.1864 177.3 43.9784C179.363 45.1934 183.977 48.0564 183.977 51.8551C183.977 52.4626 183.922 53.0701 183.654 53.5659C184.465 52.4067 184.953 50.9752 184.953 49.432C184.953 46.2897 182.945 44.139 180.071 42.1C187.071 37.638 197 31.8492 197 20.1669" fill="#EF4137"/>
<path d="M177.293 53.6697C174.907 53.6697 173.112 52.1823 172.899 50.1992C172.576 50.8067 172.466 51.4701 172.466 52.1824C172.466 54.8847 174.419 56.5885 177.293 56.5885C180.167 56.5885 182.12 54.8777 182.12 52.1824C182.12 51.4631 182.01 50.8067 181.687 50.1992C181.467 52.1823 179.679 53.6697 177.293 53.6697Z" fill="#EF4137"/>
<path d="M9.31619 39.7298C6.72342 39.7298 5.36348 40.7365 4.63903 41.8723V39.8976H0V57.1801H4.80426V48.4291C4.80426 46.0542 6.54548 44.4537 9.31619 44.4537H9.62123V39.7427H9.31619V39.7298ZM28.2409 50.0812V48.1452C28.2409 42.7629 25.0126 39.5491 20.1067 39.5491C15.2008 39.5491 11.4514 42.9565 11.4514 48.5453C11.4514 54.134 15.0355 57.5286 20.2338 57.5286C24.2119 57.5286 27.4783 55.1924 28.063 51.914L23.2206 51.6817C22.8647 52.882 21.7717 53.5919 20.094 53.5919C17.9206 53.5919 16.637 52.2238 16.5353 50.0812H28.2155H28.2409ZM20.0813 43.3696C22.2546 43.3696 23.3096 44.7377 23.4112 46.8415H16.5607C16.6878 44.6344 18.0477 43.3696 20.0813 43.3696ZM48.5128 57.1672V31.1982H43.7467V41.3948C42.857 40.3622 41.1412 39.562 38.9425 39.562C34.1382 39.562 30.7447 43.0985 30.7447 48.5582C30.7447 54.0178 34.1382 57.5415 38.9425 57.5415C41.3446 57.5415 43.1239 56.5734 44.0136 55.3989V57.1672H48.5256H48.5128ZM39.7305 43.731C42.1072 43.731 43.7467 45.3701 43.7467 48.1452V48.9067C43.7467 51.7204 42.1072 53.3209 39.7305 53.3209C37.3537 53.3209 35.6125 51.6171 35.6125 48.5453C35.6125 45.4734 37.3283 43.731 39.7305 43.731ZM57.3969 31.1982H52.5927V57.1672H57.13V55.3989C58.0197 56.5734 59.799 57.5415 62.163 57.5415C67.0054 57.5415 70.3862 53.9662 70.3862 48.5582C70.3862 43.1501 66.9927 39.562 62.163 39.562C59.9897 39.562 58.2739 40.3622 57.3842 41.3948V31.1982H57.3969ZM61.4132 43.731C63.8153 43.731 65.5311 45.4734 65.5311 48.5453C65.5311 51.6171 63.8153 53.3209 61.4132 53.3209C59.011 53.3209 57.3969 51.7204 57.3969 48.9067V48.1452C57.3969 45.3701 59.0365 43.731 61.4132 43.731ZM80.3252 39.562C75.953 39.562 73.2205 42.6984 73.2205 45.7444L78.0247 45.951C78.0247 44.8151 78.7492 43.6793 80.3887 43.6793C81.863 43.6793 82.5875 44.6215 82.5875 46.3511V47.0222L79.5626 47.19C75.9403 47.3578 72.7502 48.5969 72.7502 52.4303C72.7502 55.7732 74.9871 57.5415 78.406 57.5415C80.3506 57.5415 81.7995 56.767 82.7527 55.7732V57.1801H87.3918V46.5189C87.3918 41.9756 84.8879 39.562 80.3125 39.562M82.6002 50.2232V50.9589C82.6002 52.7917 81.2784 53.7726 79.5372 53.7726C78.3806 53.7726 77.5672 53.3338 77.5672 52.198C77.5672 50.9589 78.5839 50.4555 80.0328 50.391L82.6002 50.2232ZM96.1741 31.1982H91.3699V57.1672H96.1741V31.1982ZM104.995 31.1982H100.19V57.1672H104.995V31.1982ZM117.171 39.562C111.972 39.562 108.121 43.0985 108.121 48.5582C108.121 54.0178 111.972 57.5415 117.171 57.5415C122.369 57.5415 126.22 53.9662 126.22 48.5582C126.22 43.1501 122.369 39.562 117.171 39.562ZM117.171 43.731C119.636 43.731 121.352 45.4992 121.352 48.5453C121.352 51.5913 119.636 53.3209 117.171 53.3209C114.705 53.3209 112.989 51.5526 112.989 48.5453C112.989 45.5379 114.705 43.731 117.171 43.731ZM137.455 39.562C132.257 39.562 128.406 43.0985 128.406 48.5582C128.406 54.0178 132.257 57.5415 137.455 57.5415C142.653 57.5415 146.504 53.9662 146.504 48.5582C146.504 43.1501 142.653 39.562 137.455 39.562ZM137.455 43.731C139.921 43.731 141.637 45.4992 141.637 48.5453C141.637 51.5913 139.921 53.3209 137.455 53.3209C134.989 53.3209 133.274 51.5526 133.274 48.5453C133.274 45.5379 134.989 43.731 137.455 43.731ZM158.426 39.562C156.126 39.562 154.613 40.4655 153.851 41.6658V39.8976H149.313V57.1801H154.118V47.5902C154.118 45.525 155.363 44.1182 157.282 44.1182C159.201 44.1182 160.282 45.3572 160.282 47.5643V57.193H165.086V46.635C165.086 42.1563 162.353 39.5878 158.439 39.5878" fill="#EF4137"/>
</g>
<defs>
<clipPath id="clip0_39_158">
<rect width="197" height="57" fill="white"/>
</clipPath>
</defs>
</svg>
