<svg width="123" height="47" viewBox="0 0 123 47" fill="none" xmlns="http://www.w3.org/2000/svg">
<g clip-path="url(#clip0_39_190)">
<rect width="123" height="47" fill="white"/>
<path d="M122.648 23.5404C122.648 36.5417 107.118 47.0812 87.9603 47.0812C68.8036 47.0812 53.2736 36.5417 53.2736 23.5404C53.2736 10.5391 68.8036 0 87.9603 0C107.118 0 122.648 10.5391 122.648 23.5404Z" fill="#18995D"/>
<path d="M69.3744 23.5404C69.3744 36.5417 53.8447 47.0812 34.6872 47.0812C15.5297 47.0812 0 36.5417 0 23.5404C0 10.5391 15.5297 0 34.6872 0C53.8447 0 69.3744 10.5391 69.3744 23.5404Z" fill="#18995D"/>
<path d="M17.6327 20.878C15.5718 20.3176 14.321 19.9008 14.321 18.8362C14.321 17.9525 15.1986 17.3815 16.5564 17.3815C17.9122 17.3815 19.2829 17.897 20.4151 18.833L20.4461 18.8581L20.5796 16.2465L20.5804 16.234L20.5691 16.2279C19.4828 15.625 18.3945 15.2236 16.6127 15.2236C15.3237 15.2236 14.1497 15.5562 13.3075 16.1608C12.3828 16.8244 11.8941 17.7757 11.8941 18.9119C11.8941 21.1576 13.7523 22.1158 15.3104 22.524C17.393 23.0865 18.867 23.5854 18.867 24.8871C18.867 25.9829 17.9026 26.6639 16.3497 26.6639C14.7932 26.6639 13.2089 25.9901 12.0031 24.8163L11.973 24.7872L11.7252 27.5702L11.724 27.582L11.7341 27.5884C12.9716 28.4325 14.535 28.878 16.256 28.878C17.7087 28.878 18.9527 28.5207 19.8528 27.8434C20.8201 27.1162 21.3313 26.0484 21.3313 24.7548C21.3313 22.7786 20.1215 21.5108 17.6327 20.878Z" fill="white"/>
<path d="M30.5569 23.5426C30.5569 21.5972 29.389 20.3068 27.7235 20.3068C26.7276 20.3068 25.7704 20.7499 25.0814 21.7703V25.4493C25.7704 26.3354 26.7083 26.7781 27.7428 26.7781C29.389 26.7781 30.5569 25.4877 30.5569 23.5426ZM32.95 23.5426C32.95 27.0286 30.7102 28.8583 28.087 28.8583C26.8237 28.8583 25.8279 28.3962 25.0814 27.7411V31.8113H22.7076V18.4192H25.0814V19.5364C25.8661 18.7655 26.9384 18.2266 28.2592 18.2266C30.8248 18.2266 32.95 20.0563 32.95 23.5426Z" fill="white"/>
<path d="M41.796 22.387C41.796 21.1347 41.0109 20.1716 39.5558 20.1716C38.1775 20.1716 36.9906 21.1157 36.6845 22.6759H41.7574C41.7767 22.5792 41.796 22.5023 41.796 22.387ZM43.8251 24.3127H36.6459C36.9142 25.9118 38.0817 26.7781 39.6901 26.7781C41.0685 26.7781 42.045 26.4512 43.1362 25.8151L43.2701 27.9147C42.3129 28.4541 41.0874 28.8583 39.518 28.8583C36.6077 28.8583 34.2146 27.0286 34.2146 23.5811C34.2146 20.3837 36.627 18.2266 39.4987 18.2266C42.485 18.2266 44.0359 20.0369 44.0359 22.6759C44.0359 23.2153 43.9784 23.7353 43.8251 24.3127Z" fill="white"/>
<path d="M55.1801 27.78L55.429 25.4687C56.3862 26.297 57.7264 26.7781 59.124 26.7781C60.1199 26.7781 60.8088 26.3545 60.8088 25.6419C60.8088 23.7353 55.3333 24.7169 55.3333 21.2888C55.3333 19.228 57.0949 18.2266 59.2008 18.2266C60.6753 18.2266 61.8043 18.5924 62.6662 19.1317L62.5511 21.2694C61.5364 20.5763 60.3109 20.2295 59.2197 20.2295C58.3775 20.2295 57.6882 20.5568 57.6882 21.212C57.6882 22.8107 63.183 22.0402 63.183 25.5646C63.183 27.7411 61.2874 28.8583 59.0858 28.8583C57.4585 28.8583 56.1377 28.4347 55.1801 27.78Z" fill="white"/>
<path d="M71.148 25.8924V24.3515C70.2861 24.082 69.4825 23.9084 68.6395 23.9084C67.4144 23.9084 66.6872 24.5441 66.6872 25.4687C66.6872 26.4123 67.4916 27.01 68.5442 27.01C69.54 27.01 70.3243 26.6628 71.148 25.8924ZM73.5025 22.3097V28.6657H71.148V27.6258C70.3625 28.3768 69.31 28.8583 68.0845 28.8583C65.8064 28.8583 64.4092 27.4716 64.4092 25.5452C64.4092 23.4848 65.9979 22.2328 68.3716 22.2328C69.2718 22.2328 70.1333 22.387 71.148 22.6949V22.387C71.148 20.8267 69.98 20.1332 68.5249 20.1332C67.4337 20.1332 66.1893 20.5378 65.3085 21.2504L65.2132 19.1702C65.9786 18.6502 67.3959 18.2266 68.946 18.2266C71.588 18.2266 73.5025 19.4591 73.5025 22.3097Z" fill="white"/>
<path d="M73.7136 18.4189H76.2945L79.2197 24.8903L82.126 18.4189H84.7069L79.8697 28.6655H78.5505L73.7136 18.4189Z" fill="white"/>
<path d="M91.9658 22.387C91.9658 21.1347 91.1807 20.1716 89.726 20.1716C88.3472 20.1716 87.1607 21.1157 86.8543 22.6759H91.928C91.9465 22.5792 91.9658 22.5023 91.9658 22.387ZM93.9949 24.3127H86.8161C87.0843 25.9118 88.2519 26.7781 89.8599 26.7781C91.2378 26.7781 92.2148 26.4512 93.3059 25.8151L93.4395 27.9147C92.4826 28.4541 91.2575 28.8583 89.6877 28.8583C86.7778 28.8583 84.3848 27.0286 84.3848 23.5811C84.3848 20.3837 86.7968 18.2266 89.6684 18.2266C92.6552 18.2266 94.206 20.0369 94.206 22.6759C94.206 23.2153 94.1481 23.7353 93.9949 24.3127Z" fill="white"/>
<path d="M102.92 18.6696L102.595 20.8652C102.02 20.5569 101.484 20.4415 100.891 20.4415C99.838 20.4415 98.8808 20.9809 98.1914 22.0977V28.6657H95.8176V18.4192H98.1914V19.8058C98.8615 18.8618 99.838 18.2266 101.178 18.2266C101.829 18.2266 102.384 18.3803 102.92 18.6696Z" fill="white"/>
<path d="M103.604 27.78L103.852 25.4687C104.81 26.297 106.15 26.7781 107.547 26.7781C108.543 26.7781 109.232 26.3545 109.232 25.6419C109.232 23.7353 103.757 24.7169 103.757 21.2888C103.757 19.228 105.518 18.2266 107.624 18.2266C109.098 18.2266 110.228 18.5924 111.089 19.1317L110.974 21.2694C109.959 20.5763 108.734 20.2295 107.643 20.2295C106.801 20.2295 106.112 20.5568 106.112 21.212C106.112 22.8107 111.606 22.0402 111.606 25.5646C111.606 27.7411 109.71 28.8583 107.509 28.8583C105.882 28.8583 104.561 28.4347 103.604 27.78Z" fill="white"/>
<path d="M53.4429 25.8603C52.6228 26.4547 51.7899 26.778 50.8142 26.778C49.168 26.778 47.7321 25.6228 47.7321 23.5426C47.7321 21.4623 49.168 20.3067 50.8142 20.3067C51.7903 20.3067 52.6232 20.63 53.4441 21.2107C53.5475 20.4945 53.7039 19.7892 53.8998 19.0936C53.0508 18.5931 52.0211 18.2261 50.5656 18.2261C47.6553 18.2261 45.3004 20.2104 45.3004 23.5426C45.3004 26.8747 47.6553 28.8582 50.5656 28.8582C52.0292 28.8582 53.0508 28.4504 53.8837 27.926C53.6951 27.2466 53.5435 26.5587 53.4429 25.8603Z" fill="white"/>
</g>
<defs>
<clipPath id="clip0_39_190">
<rect width="123" height="47" fill="white"/>
</clipPath>
</defs>
</svg>
