<svg width="66" height="66" viewBox="0 0 66 66" fill="none" xmlns="http://www.w3.org/2000/svg">
<g clip-path="url(#clip0_39_171)">
<rect width="66" height="66" fill="white"/>
<path d="M66 0L8.12351 15.675C3.33026 16.9729 0 21.3236 0 26.2928V66L57.8764 50.325C62.6726 49.0271 66 44.6764 66 39.7072V0Z" fill="#26E36B"/>
<path d="M59.1423 32.4617C60.4524 31.6714 61.0693 30.556 61.0693 29.0059V26.7231C61.0693 23.1852 58.8658 21.4648 54.3338 21.4648H45.1486V44.5345H55.039C59.3825 44.5345 61.8749 42.4586 61.8749 38.8416V36.6593C61.8749 34.8203 60.7867 33.1972 59.1423 32.4648V32.4617ZM50.5194 25.6593H53.8293C55.6043 25.6593 55.811 26.4921 55.811 27.1183V29.4496C55.811 30.3766 55.0876 30.9115 53.8293 30.9115H50.5194V25.6624V25.6593ZM56.6409 38.4465C56.6409 39.8142 55.8142 40.3492 53.6926 40.3492H50.5194V34.9783H54.5345C55.9297 34.9783 56.6378 35.5923 56.6378 36.7991V38.4465H56.6409Z" fill="#004045"/>
<path d="M36.0579 21.4648H28.7692L21.7419 44.5345H27.7419L28.9455 40.1729H35.8845L37.0882 44.5345H43.0881L36.0608 21.4648H36.0579ZM30.146 35.6502L32.4134 27.3128L34.6809 35.6502H30.146Z" fill="#004045"/>
<path d="M5.64478 21.4648V26.6441H11.6508V44.5345H11.6538H17.4015H17.4044V26.6441H23.4104V21.4648H5.64478Z" fill="#004045"/>
</g>
<defs>
<clipPath id="clip0_39_171">
<rect width="66" height="66" fill="white"/>
</clipPath>
</defs>
</svg>
