<svg width="501" height="280" viewBox="0 0 501 280" fill="none" xmlns="http://www.w3.org/2000/svg">
<path d="M404.072 163.841C401.912 163.841 400.832 163.049 400.832 161.465C400.832 160.169 401.768 159.305 403.64 158.873L406.232 158.441C409.256 157.865 411.2 157.001 412.064 155.849C413.072 154.553 413.576 152.393 413.576 149.369V76.7928C413.576 74.2008 413.144 72.4728 412.28 71.6088C411.56 70.6008 410.192 69.9528 408.176 69.6648L403.64 69.0168C401.768 68.8728 400.832 68.0808 400.832 66.6408C400.832 65.4888 401.984 64.6968 404.288 64.2648C408.752 63.5448 412.136 62.3928 414.44 60.8088C416.888 59.2248 419.408 57.2808 422 54.9768C423.296 53.6808 424.376 53.0328 425.24 53.0328C426.536 53.0328 427.184 53.8968 427.184 55.6248V65.3448C427.184 66.6408 427.616 67.5048 428.48 67.9368C429.488 68.2248 430.568 67.7928 431.72 66.6408C437.48 61.1688 442.52 57.4248 446.84 55.4088C451.304 53.3928 455.984 52.3848 460.88 52.3848C467.36 52.3848 472.544 54.6888 476.432 59.2968C480.32 63.7608 482.264 70.3848 482.264 79.1688V149.369C482.264 152.393 482.696 154.553 483.56 155.849C484.568 157.001 486.584 157.793 489.608 158.225L494.36 158.873C495.944 159.161 496.736 160.025 496.736 161.465C496.736 163.049 495.872 163.841 494.144 163.841H457.856C455.84 163.841 454.832 163.049 454.832 161.465C454.832 160.025 455.624 159.161 457.208 158.873L460.232 158.441C463.256 158.009 465.2 157.145 466.064 155.849C467.072 154.553 467.576 152.393 467.576 149.369V81.5448C467.576 74.4888 466.28 69.5208 463.688 66.6408C461.096 63.7608 457.424 62.3208 452.672 62.3208C448.064 62.3208 443.888 63.6888 440.144 66.4248C436.544 69.0168 433.664 72.5448 431.504 77.0088C429.344 81.3288 428.264 86.1528 428.264 91.4808V149.369C428.264 152.393 428.696 154.553 429.56 155.849C430.568 157.145 432.584 157.937 435.608 158.225L441.44 158.873C443.024 159.161 443.816 159.953 443.816 161.249C443.816 162.977 442.736 163.841 440.576 163.841H404.072Z" fill="black"/>
<path d="M339.24 165.785C333.192 165.785 328.224 163.913 324.336 160.169C320.448 156.281 318.504 151.169 318.504 144.833C318.504 138.641 320.448 132.809 324.336 127.337C328.224 121.721 333.552 116.681 340.32 112.217C347.088 107.753 354.792 104.153 363.432 101.417C365.304 100.841 366.24 99.6168 366.24 97.7448V78.0888C366.24 71.1768 365.16 66.2808 363 63.4008C360.84 60.3768 357.888 58.8648 354.144 58.8648C350.544 58.8648 347.232 60.5208 344.208 63.8328C341.328 67.0008 339.24 72.4008 337.944 80.0328C337.224 84.6408 335.64 88.0248 333.192 90.1848C330.888 92.2008 328.512 93.2088 326.064 93.2088C322.032 93.2088 320.016 91.1928 320.016 87.1608C320.016 82.9848 321.168 78.8808 323.472 74.8488C325.92 70.6728 329.088 66.9288 332.976 63.6168C336.864 60.1608 341.112 57.4248 345.72 55.4088C350.328 53.3928 354.936 52.3848 359.544 52.3848C373.8 52.3848 380.928 60.6648 380.928 77.2248V143.321C380.928 149.369 382.44 152.393 385.464 152.393C387.336 152.393 389.064 151.169 390.648 148.721C392.232 146.129 393.024 141.809 393.024 135.761C393.024 133.457 393.96 132.305 395.832 132.305C397.56 132.305 398.424 133.529 398.424 135.977C398.424 146.489 396.552 154.121 392.808 158.873C389.208 163.481 385.104 165.785 380.496 165.785C377.04 165.785 374.304 164.417 372.288 161.681C370.272 158.801 368.904 155.417 368.184 151.529C368.04 150.089 367.392 149.369 366.24 149.369C365.232 149.225 364.224 149.873 363.216 151.313C359.76 156.065 356.232 159.665 352.632 162.113C349.032 164.561 344.568 165.785 339.24 165.785ZM345.072 155.849C348.816 155.849 352.272 154.553 355.44 151.961C358.608 149.225 361.2 145.625 363.216 141.161C365.232 136.697 366.24 131.657 366.24 126.041V110.273C366.24 107.537 364.728 106.745 361.704 107.897C352.92 111.065 346.08 115.457 341.184 121.073C336.432 126.545 334.056 133.169 334.056 140.945C334.056 150.881 337.728 155.849 345.072 155.849Z" fill="black"/>
<path d="M255.698 165.784C249.362 165.784 243.674 163.624 238.634 159.304C233.738 154.84 229.922 148.72 227.186 140.944C224.45 133.024 223.082 123.88 223.082 113.512C223.082 101.416 224.954 90.832 228.698 81.76C232.442 72.544 237.626 65.344 244.25 60.16C250.874 54.976 258.362 52.384 266.714 52.384C268.73 52.384 270.746 52.6 272.762 53.032C274.778 53.32 276.722 53.896 278.594 54.76C280.898 55.912 282.05 55.408 282.05 53.248V25.6C282.05 23.008 281.618 21.208 280.754 20.2C280.034 19.192 278.666 18.616 276.65 18.472L271.034 17.824C269.45 17.536 268.658 16.672 268.658 15.232C268.658 13.792 269.45 12.928 271.034 12.64C275.642 11.776 279.314 10.768 282.05 9.61599C284.93 8.46399 287.306 7.31199 289.178 6.16C291.482 4.72 293.21 4 294.362 4C295.946 4 296.738 5.152 296.738 7.456V143.32C296.738 149.368 298.25 152.392 301.274 152.392C303.146 152.392 304.874 151.168 306.458 148.72C308.042 146.128 308.834 141.808 308.834 135.76C308.834 133.456 309.77 132.304 311.642 132.304C313.37 132.304 314.234 133.528 314.234 135.976C314.234 146.488 312.434 154.12 308.834 158.872C305.234 163.48 301.13 165.784 296.522 165.784C292.346 165.784 289.178 164.416 287.018 161.68C284.858 158.8 283.418 155.416 282.698 151.528C282.554 150.376 282.05 149.8 281.186 149.8C280.322 149.656 279.53 150.16 278.81 151.312C274.778 156.928 271.106 160.744 267.794 162.76C264.482 164.776 260.45 165.784 255.698 165.784ZM260.45 155.848C264.194 155.848 267.65 154.624 270.818 152.176C274.13 149.584 276.794 146.128 278.81 141.808C280.97 137.488 282.05 132.664 282.05 127.336V78.736C282.05 72.256 280.538 67.144 277.514 63.4C274.634 59.656 270.818 57.784 266.066 57.784C258.002 57.784 251.45 62.536 246.41 72.04C241.514 81.4 239.066 94.216 239.066 110.488C239.066 125.32 240.938 136.624 244.682 144.4C248.57 152.032 253.826 155.848 260.45 155.848Z" fill="black"/>
<path d="M183.098 67.5048C189.002 57.4248 196.13 52.3848 204.482 52.3848C209.234 52.3848 212.762 53.8248 215.066 56.7048C217.37 59.4408 218.522 62.5368 218.522 65.9928C218.522 68.7288 217.802 70.9608 216.362 72.6888C215.066 74.4168 212.978 75.2808 210.098 75.2808C207.794 75.2808 206.066 74.7768 204.914 73.7688C203.906 72.6168 203.042 71.3208 202.322 69.8808C201.746 68.4408 201.026 67.2168 200.162 66.2088C199.298 65.0568 197.858 64.4808 195.842 64.4808C193.25 64.4808 190.802 66.0648 188.498 69.2328C186.194 72.2568 184.25 76.3608 182.666 81.5448C181.226 86.7288 180.506 92.6328 180.506 99.2568V149.369C180.506 152.393 180.938 154.553 181.802 155.849C182.81 157.145 184.826 157.937 187.85 158.225L193.682 158.873C195.266 159.161 196.058 159.953 196.058 161.249C196.058 162.977 194.978 163.841 192.818 163.841H156.314C154.154 163.841 153.074 163.049 153.074 161.465C153.074 160.169 154.01 159.305 155.882 158.873L158.474 158.441C161.498 157.865 163.442 157.001 164.306 155.849C165.314 154.553 165.818 152.393 165.818 149.369V76.7928C165.818 74.2008 165.386 72.4728 164.522 71.6088C163.802 70.6008 162.434 69.9528 160.418 69.6648L155.882 69.0168C154.01 68.8728 153.074 68.0808 153.074 66.6408C153.074 65.4888 154.226 64.6968 156.53 64.2648C160.994 63.5448 164.378 62.3928 166.682 60.8088C169.13 59.2248 171.65 57.2808 174.242 54.9768C175.538 53.6808 176.618 53.0328 177.482 53.0328C178.778 53.0328 179.426 53.8968 179.426 55.6248V67.2888C179.426 68.2968 179.858 68.9448 180.722 69.2328C181.586 69.3768 182.378 68.8008 183.098 67.5048Z" fill="black"/>
<path d="M107.513 165.785C100.169 165.785 93.5448 163.337 87.6408 158.441C81.8808 153.401 77.2728 146.561 73.8168 137.921C70.3608 129.281 68.6328 119.633 68.6328 108.977C68.6328 98.3208 70.3608 88.7448 73.8168 80.2488C77.2728 71.7528 81.9528 64.9848 87.8568 59.9448C93.7608 54.9048 100.313 52.3848 107.513 52.3848C114.857 52.3848 121.409 54.9048 127.169 59.9448C133.073 64.9848 137.753 71.7528 141.209 80.2488C144.665 88.7448 146.393 98.3208 146.393 108.977C146.393 119.633 144.665 129.281 141.209 137.921C137.897 146.561 133.289 153.401 127.385 158.441C121.481 163.337 114.857 165.785 107.513 165.785ZM107.513 160.385C122.489 160.385 129.977 143.249 129.977 108.977C129.977 74.8488 122.489 57.7848 107.513 57.7848C92.5368 57.7848 85.0488 74.8488 85.0488 108.977C85.0488 143.249 92.5368 160.385 107.513 160.385Z" fill="black"/>
<path d="M19.1161 210.28C14.6521 210.28 11.0521 209.056 8.31609 206.608C5.43609 204.304 3.99609 201.208 3.99609 197.32C3.99609 194.44 4.86009 192.064 6.58809 190.192C8.17209 188.32 10.2601 187.384 12.8521 187.384C15.3001 187.384 17.0281 188.104 18.0361 189.544C19.0441 190.984 19.8361 192.64 20.4121 194.512C21.1321 196.384 21.9241 198.04 22.7881 199.48C23.6521 200.92 25.0201 201.64 26.8921 201.64C29.6281 201.64 31.7161 200.056 33.1561 196.888C34.5961 193.72 35.3161 189.256 35.3161 183.496V22.5763C35.3161 19.5523 34.8121 17.5363 33.8041 16.5283C32.9401 15.5203 30.9961 14.7283 27.9721 14.1523L23.0041 13.2883C21.1321 12.8563 20.1961 11.9923 20.1961 10.6963C20.1961 9.11231 21.2761 8.32031 23.4361 8.32031H62.5321C64.6921 8.32031 65.7721 9.11231 65.7721 10.6963C65.7721 11.9923 64.8361 12.8563 62.9641 13.2883L57.9961 14.1523C54.9721 14.7283 52.9561 15.5203 51.9481 16.5283C51.0841 17.5363 50.6521 19.5523 50.6521 22.5763V154.336C50.6521 171.616 47.8441 185.224 42.2281 195.16C36.6121 205.24 28.9081 210.28 19.1161 210.28Z" fill="black"/>
<path d="M427.188 55.623C427.188 53.8952 426.54 53.0314 425.244 53.0312C424.38 53.0312 423.3 53.6788 422.004 54.9746C419.412 57.2786 416.891 59.2226 414.443 60.8066C412.139 62.3906 408.756 63.5427 404.292 64.2627C401.988 64.6947 400.836 65.4868 400.836 66.6387C400.836 68.0786 401.772 68.8706 403.644 69.0146L408.18 69.6631C410.196 69.9511 411.564 70.5985 412.284 71.6064C413.148 72.4705 413.58 74.199 413.58 76.791V149.367L413.574 149.924C413.515 152.658 413.012 154.632 412.067 155.847C411.203 156.999 409.259 157.862 406.235 158.438L403.644 158.871C401.772 159.303 400.836 160.167 400.836 161.463C400.836 162.948 401.785 163.736 403.684 163.829L404.076 163.839H440.58L440.972 163.829C442.744 163.735 443.689 162.978 443.807 161.561L443.819 161.247C443.819 159.951 443.027 159.159 441.443 158.871L435.611 158.223C432.588 157.935 430.571 157.143 429.563 155.847C428.754 154.632 428.323 152.657 428.272 149.924L428.268 149.367V91.4785C428.268 86.1507 429.348 81.3267 431.508 77.0068C433.668 72.5429 436.548 69.0148 440.147 66.4229C443.891 63.6869 448.068 62.3193 452.676 62.3193L453.118 62.3232C457.656 62.4105 461.18 63.8489 463.691 66.6387C466.283 69.5187 467.58 74.487 467.58 81.543V149.367L467.574 149.924C467.515 152.658 467.012 154.632 466.067 155.847C465.203 157.143 463.259 158.006 460.235 158.438L457.212 158.871C455.628 159.159 454.836 160.023 454.836 161.463C454.836 163.047 455.844 163.839 457.859 163.839H494.147C495.767 163.839 496.628 163.143 496.729 161.751L496.739 161.463C496.739 160.023 495.947 159.159 494.363 158.871L489.611 158.223C486.588 157.791 484.571 156.999 483.563 155.847C482.754 154.632 482.323 152.657 482.272 149.924L482.268 149.367V79.167C482.268 70.383 480.324 63.7589 476.436 59.2949C472.669 54.8309 467.686 52.5291 461.487 52.3896L460.884 52.3828C455.988 52.3828 451.308 53.3912 446.844 55.4072C442.524 57.4232 437.484 61.1667 431.724 66.6387C430.572 67.7907 429.491 68.2226 428.483 67.9346C427.62 67.5025 427.188 66.6386 427.188 65.3428V55.623ZM431.188 61.6826C436.225 57.1346 440.886 53.7731 445.152 51.7822L445.175 51.7715L445.197 51.7617C450.178 49.5122 455.42 48.3828 460.884 48.3828C468.442 48.3828 474.783 51.1332 479.493 56.7158C484.232 62.1873 486.268 69.8986 486.268 79.167V149.367L486.272 149.883C486.311 151.787 486.561 152.828 486.748 153.321C486.862 153.388 487.036 153.481 487.294 153.582C487.922 153.829 488.858 154.074 490.178 154.263L494.904 154.907L494.992 154.92L495.079 154.936C496.414 155.178 497.924 155.755 499.095 157.032C500.237 158.278 500.683 159.781 500.734 161.184L500.739 161.463L500.734 161.748C500.682 163.193 500.219 164.888 498.795 166.193C497.342 167.526 495.546 167.839 494.147 167.839H457.859C456.436 167.839 454.631 167.578 453.12 166.391C451.531 165.142 450.914 163.398 450.843 161.784L450.836 161.463L450.841 161.184C450.892 159.78 451.339 158.278 452.481 157.032C453.653 155.755 455.161 155.178 456.496 154.936L456.571 154.922L459.67 154.479C460.961 154.295 461.814 154.044 462.337 153.812C462.605 153.692 462.734 153.601 462.781 153.564L462.82 153.507L462.91 153.391C463.074 153.18 463.58 152.155 463.58 149.367V81.543C463.58 74.9608 462.366 71.2905 460.864 69.4834L460.719 69.3145C459.053 67.4637 456.571 66.3194 452.676 66.3193C448.922 66.3193 445.571 67.4136 442.508 69.6523L442.496 69.6611L442.485 69.6689C439.486 71.8284 437.014 74.8118 435.108 78.749L435.085 78.7959C433.23 82.505 432.268 86.7068 432.268 91.4785V149.367L432.272 149.883C432.314 151.958 432.606 153.009 432.796 153.441C432.881 153.499 433.035 153.588 433.294 153.689C433.777 153.879 434.502 154.066 435.531 154.191L435.991 154.241L436.054 154.247L441.886 154.896L442.023 154.91L442.159 154.936C443.416 155.164 444.881 155.68 446.054 156.853C447.24 158.038 447.754 159.52 447.813 160.96L447.819 161.247L447.812 161.576C447.741 163.234 447.122 165.024 445.509 166.314C443.958 167.555 442.087 167.839 440.58 167.839H404.076C402.625 167.839 400.812 167.594 399.28 166.471C397.627 165.258 396.925 163.502 396.844 161.802L396.836 161.463L396.844 161.138C396.924 159.521 397.601 158.032 398.824 156.903C399.999 155.819 401.448 155.273 402.744 154.974L402.864 154.945L402.986 154.925L405.529 154.501C406.838 154.249 407.746 153.967 408.337 153.704C408.703 153.541 408.866 153.422 408.912 153.386C409.079 153.166 409.58 152.137 409.58 149.367V76.791C409.58 75.6884 409.485 74.9603 409.375 74.5215C409.348 74.4121 409.322 74.3348 409.304 74.2842L409.221 74.2012L409.1 74.0322C409.079 74.0199 409.048 74.0001 409.005 73.9795C408.812 73.8881 408.457 73.7642 407.877 73.6641L407.614 73.623L403.129 72.9814C401.814 72.8552 400.254 72.4661 398.954 71.3662C397.523 70.1555 396.913 68.5273 396.843 66.9531L396.836 66.6387L396.85 66.2363C396.987 64.2565 398.123 62.7856 399.434 61.8848C400.679 61.0286 402.177 60.5894 403.555 60.3311L403.654 60.3135C407.853 59.6363 410.572 58.6145 412.178 57.5107L412.224 57.4785L412.271 57.4482C414.5 56.0058 416.836 54.2096 419.28 52.042C420.036 51.2977 420.852 50.612 421.728 50.0869C422.622 49.5503 423.829 49.0312 425.244 49.0312L425.55 49.0381C427.09 49.1102 428.744 49.7361 429.901 51.2793C430.973 52.7089 431.188 54.3745 431.188 55.623V61.6826Z" fill="black"/>
<path d="M366.24 126.039L366.229 127.085C366.11 132.283 365.107 136.974 363.217 141.159L362.832 141.985C360.874 146.069 358.411 149.394 355.44 151.959L354.843 152.43C351.839 154.708 348.582 155.847 345.072 155.847V151.847C347.791 151.847 350.356 150.936 352.868 148.893C355.509 146.6 357.764 143.514 359.571 139.513C361.322 135.637 362.24 131.17 362.24 126.039V111.96C354.347 114.923 348.404 118.876 344.199 123.699C340.131 128.387 338.057 134.057 338.057 140.942L338.066 141.782C338.166 145.87 338.995 148.346 340.027 149.743C340.961 151.007 342.398 151.847 345.072 151.847V155.847C337.958 155.847 334.29 151.184 334.067 141.859L334.057 140.942C334.057 133.167 336.433 126.543 341.185 121.071C346.081 115.455 352.92 111.063 361.704 107.895C364.728 106.743 366.24 107.535 366.24 110.271V126.039ZM366.229 98.0859C366.12 99.7651 365.188 100.875 363.433 101.415C354.793 104.151 347.088 107.751 340.32 112.215C333.552 116.679 328.224 121.719 324.336 127.335L323.978 127.849C320.329 133.171 318.504 138.832 318.504 144.831L318.51 145.421C318.627 151.485 320.569 156.4 324.336 160.167C328.102 163.794 332.883 165.664 338.677 165.777L339.24 165.783C344.402 165.783 348.752 164.634 352.292 162.337L352.632 162.111C356.007 159.816 359.319 156.508 362.567 152.188L363.217 151.311C364.225 149.871 365.232 149.223 366.24 149.367C367.392 149.367 368.041 150.087 368.185 151.527L368.327 152.25C369.078 155.836 370.398 158.979 372.288 161.679C374.241 164.329 376.87 165.697 380.175 165.779L380.496 165.783C385.104 165.783 389.209 163.479 392.809 158.871C396.436 154.268 398.306 146.961 398.419 136.952L398.425 135.975C398.425 133.527 397.56 132.303 395.832 132.303C393.96 132.303 393.024 133.455 393.024 135.759L393.015 136.873C392.922 142.34 392.133 146.289 390.648 148.719C389.064 151.167 387.336 152.391 385.464 152.391C382.535 152.39 381.024 149.553 380.933 143.877L380.929 143.319V77.2227C380.929 60.6628 373.8 52.3828 359.544 52.3828C354.936 52.3829 350.329 53.3913 345.721 55.4072L344.86 55.793C340.583 57.7673 336.622 60.3752 332.977 63.6152C329.089 66.9272 325.921 70.6708 323.473 74.8467C321.169 78.8787 320.017 82.9832 320.017 87.1592L320.022 87.5312C320.141 91.193 322.03 93.0831 325.692 93.2012L326.064 93.207C328.512 93.207 330.888 92.1986 333.192 90.1826C335.487 88.1577 337.023 85.0571 337.799 80.8809L337.944 80.0312C339.24 72.3995 341.328 66.9991 344.208 63.8311C347.232 60.5191 350.545 58.8633 354.145 58.8633L354.493 58.8672C358.072 58.9588 360.908 60.4693 363 63.3984C365.16 66.2784 366.24 71.1749 366.24 78.0869V97.7432L366.229 98.0859ZM384.929 143.319L384.933 143.832C384.975 146.325 385.323 147.7 385.64 148.334L385.641 148.335C385.696 148.308 385.767 148.27 385.853 148.209C386.171 147.983 386.658 147.51 387.255 146.598C388.222 144.986 389.024 141.628 389.024 135.759C389.024 134.168 389.331 132.234 390.622 130.645C392.042 128.897 394.035 128.303 395.832 128.303C397.766 128.303 399.739 129.066 401.044 130.914C402.169 132.507 402.425 134.402 402.425 135.975L402.419 136.982C402.304 147.333 400.388 155.714 395.95 161.347L395.949 161.346C391.816 166.63 386.653 169.783 380.496 169.783C375.942 169.783 372.1 167.951 369.333 164.4L369.068 164.052L369.039 164.013L369.012 163.973C367.243 161.445 365.924 158.627 365.03 155.55C361.815 159.672 358.442 162.998 354.882 165.419C350.483 168.41 345.189 169.783 339.24 169.783C332.293 169.783 326.287 167.598 321.562 163.048L321.534 163.022L321.508 162.995C316.754 158.242 314.504 152.053 314.504 144.831C314.504 137.738 316.749 131.106 321.075 125.018C325.3 118.927 331.017 113.56 338.118 108.876C345.228 104.186 353.274 100.436 362.225 97.6016L362.24 97.5967V78.0869C362.24 71.5713 361.212 67.8291 359.926 65.9727L359.801 65.7988L359.772 65.7617L359.745 65.7236C358.343 63.7604 356.608 62.8633 354.145 62.8633C351.934 62.8633 349.628 63.8274 347.162 66.5283C345.068 68.8368 343.144 73.3033 341.888 80.7002C341.08 85.8203 339.222 90.1979 335.839 93.1826L335.833 93.1875L335.826 93.1934C332.982 95.6817 329.706 97.207 326.064 97.207C323.432 97.207 320.723 96.546 318.7 94.5234C316.678 92.5008 316.017 89.7917 316.017 87.1592C316.017 82.2115 317.389 77.4294 319.999 72.8623L320.011 72.8428L320.021 72.8242C322.702 68.2514 326.157 64.1751 330.354 60.5947C334.536 56.884 339.125 53.9261 344.117 51.7422C349.184 49.5255 354.336 48.3829 359.544 48.3828C367.458 48.3828 374.073 50.7093 378.613 55.9834C383.055 61.1428 384.929 68.4607 384.929 77.2227V143.319Z" fill="black"/>
<path d="M278.05 78.7354C278.05 72.8538 276.679 68.733 274.401 65.9131L274.343 65.8389C272.225 63.0862 269.584 61.7842 266.065 61.7842C259.978 61.7842 254.558 65.2128 249.943 73.9141C245.472 82.4736 243.065 94.5574 243.065 110.488L243.071 111.846C243.183 125.71 245.02 135.846 248.257 142.605C251.696 149.344 255.792 151.848 260.449 151.848V155.848C253.825 155.848 248.57 152.031 244.682 144.399C241.055 136.866 239.185 126.023 239.071 111.868L239.065 110.488C239.065 94.2165 241.513 81.4 246.409 72.04C251.449 62.5361 258.001 57.7842 266.065 57.7842L266.509 57.7891C271.055 57.9025 274.724 59.7727 277.514 63.3994C280.538 67.1433 282.05 72.2556 282.05 78.7354V127.336L282.037 128.329C281.911 133.265 280.834 137.758 278.81 141.808C276.794 146.128 274.129 149.584 270.817 152.176C267.649 154.624 264.193 155.848 260.449 155.848V151.848C263.238 151.848 265.84 150.961 268.354 149.023C271.106 146.869 273.399 143.941 275.185 140.116L275.231 140.019C277.086 136.309 278.05 132.108 278.05 127.336V78.7354ZM282.036 53.6338C281.901 55.4644 280.754 55.8396 278.594 54.7598C276.722 53.8958 274.778 53.3202 272.762 53.0322C270.998 52.6542 269.234 52.4408 267.47 52.3936L266.714 52.3838C258.362 52.3838 250.874 54.9762 244.25 60.1602L243.633 60.6514C237.303 65.7954 232.324 72.8317 228.697 81.7598C224.953 90.8317 223.082 101.416 223.082 113.512L223.086 114.48C223.169 124.45 224.535 133.271 227.186 140.943C229.922 148.719 233.738 154.84 238.634 159.304C243.516 163.489 249.007 165.647 255.105 165.777L255.697 165.784C260.152 165.784 263.975 164.898 267.164 163.126L267.794 162.76C270.899 160.87 274.32 157.398 278.058 152.344L278.81 151.312C279.53 150.16 280.322 149.656 281.186 149.8C282.05 149.8 282.553 150.376 282.697 151.528C283.417 155.416 284.858 158.8 287.018 161.68C289.11 164.33 292.148 165.697 296.133 165.78L296.521 165.784C300.985 165.784 304.976 163.621 308.494 159.297L308.834 158.872C312.434 154.12 314.233 146.488 314.233 135.976C314.233 133.528 313.37 132.304 311.642 132.304C309.77 132.304 308.834 133.456 308.834 135.76L308.824 136.874C308.731 142.341 307.943 146.29 306.458 148.72C304.874 151.168 303.145 152.392 301.273 152.392C298.344 152.392 296.834 149.554 296.742 143.878L296.737 143.32V7.45605C296.737 5.15206 295.945 4 294.361 4C293.209 4.0001 291.482 4.72026 289.178 6.16016C287.306 7.31214 284.93 8.46422 282.05 9.61621C279.314 10.7682 275.641 11.7757 271.033 12.6396C269.45 12.9277 268.657 13.7918 268.657 15.2314C268.657 16.6714 269.449 17.5362 271.033 17.8242L276.649 18.4717C278.665 18.6157 280.034 19.1922 280.754 20.2002C281.618 21.2082 282.05 23.008 282.05 25.5996V53.248L282.036 53.6338ZM300.737 143.32L300.742 143.833C300.784 146.326 301.132 147.701 301.449 148.335V148.336C301.504 148.309 301.575 148.271 301.661 148.21C301.98 147.984 302.467 147.511 303.064 146.599C304.031 144.987 304.834 141.628 304.834 135.76C304.834 134.169 305.14 132.235 306.431 130.646C307.851 128.898 309.844 128.304 311.642 128.304L312.005 128.312C313.82 128.403 315.63 129.182 316.854 130.915C317.978 132.508 318.233 134.403 318.233 135.976C318.233 146.768 316.419 155.483 312.021 161.287L312.004 161.311L311.985 161.334C307.851 166.626 302.683 169.784 296.521 169.784C291.391 169.784 286.949 168.049 283.878 164.158L283.817 164.08C282.112 161.806 280.806 159.288 279.879 156.554C276.495 160.875 273.168 164.171 269.873 166.177C265.807 168.652 261.017 169.784 255.697 169.784C248.358 169.784 241.758 167.25 236.03 162.341L235.983 162.301L235.938 162.26C230.62 157.411 226.575 150.94 223.688 143.04L223.412 142.271L223.408 142.261L223.405 142.25C220.494 133.824 219.082 124.223 219.082 113.512C219.082 101.019 221.013 89.9035 224.991 80.2539C228.95 70.5097 234.517 62.6968 241.784 57.0098C249.106 51.2793 257.461 48.3838 266.714 48.3838C268.967 48.3838 271.214 48.6223 273.449 49.0908C275.021 49.3233 276.556 49.7024 278.05 50.2275V25.5996C278.05 24.5034 277.956 23.7391 277.836 23.2393C277.763 22.9355 277.695 22.7935 277.676 22.7549L277.622 22.6934C277.472 22.6325 277.16 22.5393 276.619 22.4834L276.364 22.4619L276.277 22.4551L276.191 22.4453L270.575 21.7979L270.446 21.7822L270.318 21.7598C268.983 21.517 267.474 20.9406 266.303 19.6631C265.084 18.3338 264.657 16.7124 264.657 15.2314C264.657 13.7506 265.084 12.1299 266.303 10.8008C267.468 9.5299 268.967 8.953 270.297 8.70801L271.921 8.38965C275.591 7.63402 278.425 6.80219 280.497 5.92969L280.53 5.91504L280.564 5.90234C283.311 4.80362 285.465 3.74769 287.081 2.75293C288.335 1.97046 289.537 1.317 290.663 0.847656C291.747 0.395907 293.029 4.70514e-05 294.361 0L294.719 0.00878906C296.504 0.100969 298.267 0.892244 299.439 2.59766C300.504 4.14663 300.737 5.96989 300.737 7.45605V143.32Z" fill="black"/>
<path d="M179.43 55.623C179.43 53.8952 178.782 53.0314 177.486 53.0312C176.622 53.0312 175.542 53.6788 174.246 54.9746C171.654 57.2786 169.134 59.2226 166.686 60.8066C164.382 62.3906 160.998 63.5427 156.534 64.2627C154.23 64.6947 153.078 65.4868 153.078 66.6387C153.078 68.0786 154.014 68.8706 155.886 69.0146L160.422 69.6631C162.438 69.9511 163.806 70.5985 164.526 71.6064C165.39 72.4705 165.822 74.199 165.822 76.791V149.367L165.816 149.924C165.757 152.658 165.255 154.632 164.31 155.847C163.446 156.999 161.502 157.862 158.478 158.438L155.886 158.871C154.014 159.303 153.078 160.167 153.078 161.463C153.078 162.948 154.027 163.736 155.926 163.829L156.318 163.839H192.822L193.214 163.829C194.986 163.735 195.931 162.978 196.049 161.561L196.062 161.247C196.062 159.951 195.27 159.159 193.686 158.871L187.854 158.223C184.83 157.935 182.814 157.143 181.806 155.847C180.996 154.632 180.565 152.657 180.515 149.924L180.51 149.367V99.2549C180.51 92.6309 181.23 86.7269 182.67 81.543C184.254 76.359 186.198 72.2545 188.502 69.2305C190.806 66.0627 193.254 64.4786 195.846 64.4785C197.862 64.4785 199.302 65.055 200.166 66.207C201.03 67.215 201.75 68.439 202.326 69.8789C203.046 71.3188 203.91 72.6147 204.918 73.7666C205.998 74.7116 207.584 75.2144 209.677 75.2734L210.102 75.2793C212.982 75.2793 215.07 74.4145 216.366 72.6865C217.716 71.0666 218.433 69.0038 218.518 66.498L218.526 65.9912C218.526 62.7511 217.513 59.827 215.488 57.2197L215.07 56.7031C212.838 53.9131 209.457 52.4739 204.928 52.3867L204.486 52.3828C196.134 52.3828 189.006 57.4229 183.102 67.5029C182.382 68.7988 181.59 69.3745 180.726 69.2305C179.916 68.9604 179.485 68.3743 179.435 67.4717L179.43 67.2871V55.623ZM183.43 59.8691C189.136 52.5523 196.127 48.3828 204.486 48.3828C210.037 48.3829 214.857 50.092 218.129 54.126C221.017 57.5557 222.526 61.5571 222.526 65.9912L222.515 66.6367C222.406 69.8241 221.479 72.7675 219.487 75.1875C217.198 78.1621 213.744 79.2793 210.102 79.2793C207.39 79.2793 204.634 78.7148 202.489 76.9512L202.284 76.7773L202.083 76.6016L201.907 76.4014C200.819 75.1578 199.878 73.7902 199.081 72.3096L198.748 71.668L198.674 71.5186L198.612 71.3643C198.227 70.4018 197.79 69.646 197.328 69.0537L197.129 68.8096L197.044 68.7109L196.993 68.6426C196.984 68.6382 196.971 68.6324 196.952 68.625C196.823 68.5733 196.49 68.4785 195.846 68.4785C195.088 68.4786 193.688 68.9014 191.737 71.584L191.711 71.6191L191.684 71.6553C189.769 74.1678 188.01 77.7727 186.515 82.6484C185.197 87.4065 184.51 92.9282 184.51 99.2549V149.367L184.515 149.883C184.556 151.958 184.848 153.009 185.038 153.441C185.123 153.499 185.278 153.588 185.536 153.689C186.02 153.879 186.744 154.066 187.773 154.191L188.233 154.241L188.296 154.247L194.128 154.896L194.266 154.91L194.401 154.936C195.659 155.164 197.123 155.68 198.296 156.853C199.482 158.038 199.996 159.52 200.056 160.96L200.062 161.247L200.055 161.576C199.984 163.234 199.365 165.024 197.751 166.314C196.2 167.555 194.33 167.839 192.822 167.839H156.318C154.868 167.839 153.054 167.594 151.522 166.471C149.869 165.258 149.167 163.502 149.086 161.802L149.078 161.463L149.086 161.138C149.166 159.521 149.844 158.032 151.066 156.903C152.241 155.819 153.691 155.273 154.986 154.974L155.106 154.945L155.229 154.925L157.771 154.501C159.08 154.249 159.988 153.967 160.579 153.704C160.945 153.541 161.108 153.422 161.154 153.386C161.321 153.166 161.822 152.137 161.822 149.367V76.791C161.822 75.6884 161.727 74.9603 161.617 74.5215C161.59 74.4121 161.564 74.3348 161.546 74.2842L161.463 74.2012L161.342 74.0322C161.321 74.0199 161.291 74.0001 161.247 73.9795C161.054 73.8881 160.699 73.7642 160.119 73.6641L159.856 73.623L155.371 72.9814C154.056 72.8552 152.496 72.4661 151.196 71.3662C149.765 70.1555 149.156 68.5273 149.085 66.9531L149.078 66.6387L149.092 66.2363C149.229 64.2565 150.365 62.7856 151.676 61.8848C152.921 61.0286 154.419 60.5894 155.797 60.3311L155.896 60.3135C160.095 59.6363 162.814 58.6145 164.42 57.5107L164.466 57.4785L164.513 57.4482C166.742 56.0058 169.078 54.2096 171.522 52.042C172.278 51.2977 173.095 50.612 173.97 50.0869C174.864 49.5503 176.071 49.0312 177.486 49.0312C179.11 49.0314 180.909 49.6335 182.144 51.2793C183.216 52.7089 183.43 54.3745 183.43 55.623V59.8691Z" fill="black"/>
<path d="M146.393 108.975C146.393 98.6519 144.772 89.3426 141.528 81.0469L141.209 80.2471C137.753 71.7511 133.073 64.9824 127.169 59.9424C121.409 54.9026 114.857 52.3828 107.513 52.3828C100.313 52.3829 93.7612 54.9027 87.8574 59.9424L87.3066 60.4209C81.6615 65.408 77.1653 72.0168 73.8174 80.2471L73.498 81.0469C70.2548 89.3426 68.6328 98.6518 68.6328 108.975C68.6328 119.631 70.3614 129.279 73.8174 137.919C77.2733 146.559 81.8809 153.399 87.6406 158.438C93.36 163.181 99.7555 165.627 106.826 165.775L107.513 165.783C114.857 165.783 121.481 163.334 127.385 158.438C133.289 153.398 137.897 146.559 141.209 137.919C144.665 129.279 146.393 119.631 146.393 108.975ZM125.977 108.975C125.977 92.0801 124.105 79.952 120.698 72.1885C119.015 68.3524 117.041 65.7781 114.922 64.168C112.854 62.5974 110.44 61.7832 107.513 61.7832C104.585 61.7833 102.172 62.5974 100.104 64.168C97.985 65.7781 96.0115 68.3523 94.3281 72.1885C90.9214 79.952 89.0488 92.08 89.0488 108.975C89.0488 125.942 90.9209 138.128 94.3301 145.93C96.015 149.785 97.991 152.372 100.111 153.989C102.179 155.566 104.589 156.383 107.513 156.383V160.383C92.5369 160.383 85.0488 143.246 85.0488 108.975C85.0489 74.847 92.537 57.7835 107.513 57.7832L108.21 57.7949C122.721 58.3201 129.977 75.3803 129.977 108.975C129.977 143.247 122.489 160.383 107.513 160.383V156.383C110.436 156.383 112.848 155.566 114.915 153.989C117.035 152.372 119.01 149.785 120.695 145.93C124.104 138.128 125.977 125.942 125.977 108.975ZM150.393 108.975C150.393 120.044 148.599 130.188 144.943 139.35L144.944 139.351C141.439 148.495 136.483 155.932 129.982 161.481L129.96 161.5L129.938 161.518C123.351 166.98 115.833 169.783 107.513 169.783C99.4525 169.783 92.1455 167.153 85.708 162.022L85.0879 161.518L85.0469 161.484L85.0068 161.449C78.8775 156.086 74.0536 148.967 70.4482 140.253L70.1035 139.404C66.4331 130.228 64.6328 120.066 64.6328 108.975C64.6328 97.8845 66.4328 87.7848 70.1123 78.7393C73.7658 69.7579 78.7879 62.4252 85.2598 56.9004C91.8267 51.2945 99.2834 48.3829 107.513 48.3828C115.853 48.3828 123.319 51.2731 129.766 56.9004C136.238 62.4252 141.261 69.7578 144.914 78.7393C148.594 87.7848 150.393 97.8845 150.393 108.975Z" fill="black"/>
<path d="M50.6553 154.336V22.5762C50.6553 19.741 51.0355 17.7916 51.7949 16.7285L51.9521 16.5283C52.8971 15.5834 54.7276 14.828 57.4443 14.2627L58 14.1514L62.9678 13.2881C64.7228 12.8831 65.655 12.0981 65.7646 10.9336L65.7754 10.6963C65.7754 9.21121 64.8264 8.42184 62.9277 8.3291L62.5361 8.32031V4.32031C63.9869 4.32036 65.7993 4.56516 67.3311 5.68848C68.984 6.90066 69.6862 8.65681 69.7676 10.3564L69.7754 10.6963L69.7676 11.0205C69.6877 12.6378 69.01 14.126 67.7871 15.2549C66.6125 16.3391 65.163 16.8865 63.8672 17.1855L63.7607 17.21L63.6533 17.2285L58.7148 18.0869C57.3711 18.3444 56.3798 18.6265 55.6826 18.9004C55.3606 19.0269 55.142 19.1385 55 19.2188C54.9689 19.3156 54.9298 19.4511 54.8906 19.6338C54.754 20.2712 54.6553 21.2282 54.6553 22.5762V154.336L54.6475 155.98C54.4742 172.874 51.6099 186.696 45.7139 197.128L45.7129 197.127C39.5419 208.191 30.6407 214.28 19.1201 214.28C13.9312 214.28 9.3381 212.847 5.72949 209.655C1.90483 206.552 0.000119232 202.307 0 197.32C0 193.594 1.14129 190.22 3.61621 187.519C6.00047 184.752 9.20309 183.384 12.8555 183.384C15.9549 183.384 19.0883 184.296 21.123 186.984L21.3164 187.25C22.5581 189.024 23.5061 191.01 24.1875 193.173C24.7473 194.616 25.3373 195.874 25.9512 196.958L26.2217 197.422C26.2725 197.507 26.3066 197.542 26.3154 197.551C26.3226 197.558 26.3249 197.558 26.3291 197.561C26.3384 197.565 26.4865 197.64 26.8955 197.64V201.64C25.1406 201.64 23.829 201.007 22.96 199.741L22.792 199.479C21.928 198.04 21.136 196.384 20.416 194.512C19.912 192.874 19.2421 191.401 18.4072 190.094L18.04 189.544C17.0951 188.194 15.5171 187.477 13.3066 187.393L12.8555 187.384C10.2637 187.384 8.17572 188.32 6.5918 190.191C4.8638 192.063 4 194.44 4 197.32L4.00391 197.682C4.091 201.4 5.52952 204.375 8.31934 206.607C10.8844 208.902 14.2092 210.122 18.293 210.266L19.1201 210.28C28.9118 210.28 36.6155 205.24 42.2314 195.16C47.6719 185.535 50.4774 172.463 50.6475 155.945L50.6553 154.336ZM31.3193 22.5762C31.3193 21.2572 31.2072 20.3484 31.0615 19.7656C30.9903 19.4806 30.9241 19.3314 30.8955 19.2725L30.8711 19.248L30.8291 19.1992C30.7777 19.1645 30.5949 19.0458 30.1924 18.8818C29.5555 18.6224 28.6022 18.3443 27.2588 18.0869L22.3223 17.2285L22.2148 17.21L22.1084 17.1855C20.8126 16.8865 19.363 16.3391 18.1885 15.2549C16.9656 14.126 16.2879 12.6378 16.208 11.0205L16.1992 10.6963L16.208 10.3564C16.2894 8.65679 16.9916 6.90066 18.6445 5.68848C20.1764 4.56515 21.9887 4.32034 23.4395 4.32031V8.32031L23.0469 8.3291C21.1488 8.42202 20.1992 9.21142 20.1992 10.6963C20.1994 11.992 21.136 12.8561 23.0078 13.2881L27.9756 14.1514C30.9996 14.7274 32.9436 15.5203 33.8076 16.5283C34.8155 17.5364 35.3193 19.5524 35.3193 22.5762V183.496L35.3115 184.561C35.2272 189.809 34.5101 193.918 33.1602 196.888L32.8818 197.463C31.4559 200.247 29.4606 201.64 26.8955 201.64V197.64C27.4316 197.64 27.7793 197.505 28.0957 197.265C28.4661 196.984 28.9865 196.403 29.5186 195.232C30.6165 192.817 31.3193 189.012 31.3193 183.496V22.5762ZM62.5361 4.32031V8.32031H23.4395V4.32031H62.5361Z" fill="black"/>
<path d="M440.891 276.839V190.039H495.699V205.663H457.259V225.503H494.211V241.127H457.259V261.215H497.187V276.839H440.891Z" fill="black"/>
<path d="M356.523 276.839V190.039H385.291L390.251 255.263V267.911H393.227V255.263L398.187 190.039H426.955V276.839H412.075V218.807L413.563 198.967H410.587L404.139 276.839H379.587L372.891 198.967H369.915L371.403 218.807V276.839H356.523Z" fill="black"/>
<path d="M314.816 278.577C304.896 278.577 297.084 275.559 291.38 269.525C285.676 263.407 282.824 254.603 282.824 243.113V223.769C282.824 212.609 285.676 203.929 291.38 197.729C297.084 191.446 304.896 188.305 314.816 188.305C324.736 188.305 332.548 191.446 338.252 197.729C343.956 203.929 346.808 212.609 346.808 223.769V243.113C346.808 254.603 343.956 263.407 338.252 269.525C332.548 275.559 324.736 278.577 314.816 278.577ZM314.816 263.697C320.768 263.697 324.86 261.878 327.092 258.241C329.324 254.603 330.44 249.891 330.44 244.105V222.777C330.44 219.139 329.903 215.833 328.828 212.857C327.754 209.881 326.059 207.525 323.744 205.789C321.512 204.053 318.536 203.185 314.816 203.185C311.096 203.185 308.079 204.053 305.764 205.789C303.45 207.525 301.755 209.881 300.68 212.857C299.688 215.833 299.192 219.139 299.192 222.777V244.105C299.192 249.891 300.308 254.603 302.54 258.241C304.772 261.878 308.864 263.697 314.816 263.697Z" fill="black"/>
<path d="M237.89 278.577C227.97 278.577 220.158 275.559 214.454 269.525C208.75 263.407 205.898 254.603 205.898 243.113V223.769C205.898 212.609 208.75 203.929 214.454 197.729C220.158 191.446 227.97 188.305 237.89 188.305C247.81 188.305 255.622 191.446 261.326 197.729C267.03 203.929 269.882 212.609 269.882 223.769V243.113C269.882 254.603 267.03 263.407 261.326 269.525C255.622 275.559 247.81 278.577 237.89 278.577ZM237.89 263.697C243.842 263.697 247.934 261.878 250.166 258.241C252.398 254.603 253.514 249.891 253.514 244.105V222.777C253.514 219.139 252.977 215.833 251.902 212.857C250.828 209.881 249.133 207.525 246.818 205.789C244.586 204.053 241.61 203.185 237.89 203.185C234.17 203.185 231.153 204.053 228.838 205.789C226.524 207.525 224.829 209.881 223.754 212.857C222.762 215.833 222.266 219.139 222.266 222.777V244.105C222.266 249.891 223.382 254.603 225.614 258.241C227.846 261.878 231.938 263.697 237.89 263.697Z" fill="black"/>
<path d="M132.07 276.839V190.039H165.302C171.254 190.039 176.256 191.114 180.306 193.263C184.357 195.412 187.416 198.306 189.482 201.943C191.549 205.498 192.582 209.507 192.582 213.971V216.947C192.582 220.502 191.59 223.85 189.606 226.991C187.705 230.05 184.812 232.406 180.926 234.059V236.291C183.82 236.622 186.093 237.738 187.746 239.639C189.482 241.54 190.35 243.938 190.35 246.831V276.839H173.982V250.799C173.982 248.815 173.445 247.203 172.37 245.963C171.378 244.723 169.684 244.103 167.286 244.103H148.438V276.839H132.07ZM148.438 228.479H164.062C168.03 228.479 171.048 227.528 173.114 225.627C175.181 223.726 176.214 221.122 176.214 217.815V216.327C176.214 213.434 175.181 210.954 173.114 208.887C171.048 206.738 168.03 205.663 164.062 205.663H148.438V228.479Z" fill="black"/>
<path d="M84.2869 278.577C74.3669 278.577 66.5135 275.559 60.7269 269.525C54.9402 263.407 52.0469 254.603 52.0469 243.113V223.769C52.0469 212.609 54.9402 203.929 60.7269 197.729C66.5135 191.446 74.3669 188.305 84.2869 188.305C94.6202 188.305 102.474 191.198 107.847 196.985C113.303 202.771 116.031 210.625 116.031 220.545V222.777H99.6629V220.545C99.6629 217.817 99.2082 215.13 98.2989 212.485C97.3895 209.757 95.8189 207.525 93.5869 205.789C91.3549 204.053 88.2549 203.185 84.2869 203.185C80.6495 203.185 77.6322 204.094 75.2349 205.913C72.9202 207.649 71.1842 210.005 70.0269 212.981C68.9522 215.874 68.4149 219.057 68.4149 222.529V244.353C68.4149 249.974 69.6135 254.603 72.0109 258.241C74.4082 261.878 78.5002 263.697 84.2869 263.697C88.5029 263.697 91.7269 262.87 93.9589 261.217C96.1909 259.563 97.6789 257.414 98.4229 254.769C99.2495 252.123 99.6629 249.313 99.6629 246.337V244.105H116.031V246.337C116.031 256.587 113.303 264.523 107.847 270.145C102.474 275.766 94.6202 278.577 84.2869 278.577Z" fill="black"/>
<path d="M440.891 190.039V276.839H497.187V261.215H457.259V241.127H494.211V225.503H457.259V205.663H495.698V190.039H440.891ZM496.698 206.663H458.259V224.503H495.211V242.127H458.259V260.215H498.187V277.839H439.891V189.039H496.698V206.663Z" fill="black"/>
<path d="M426.956 190.039H398.188L393.228 255.263V267.911H390.252V255.263L385.292 190.039H356.523V276.839H371.404V218.807L369.916 198.967H372.892L379.588 276.839H404.14L410.588 198.967H413.563L412.076 218.807V276.839H426.956V190.039ZM427.956 277.839H411.076V218.77L411.079 218.732L412.485 199.967H411.509L405.061 277.839H378.67L371.974 199.967H370.994L372.401 218.732L372.404 218.77V277.839H355.523V189.039H386.219L391.249 255.188L391.252 255.225V266.911H392.228V255.225L392.23 255.188L397.261 189.039H427.956V277.839Z" fill="black"/>
<path d="M346.808 223.769C346.808 212.609 343.956 203.928 338.252 197.729C332.726 191.642 325.222 188.505 315.74 188.314L314.816 188.305C304.896 188.305 297.084 191.446 291.38 197.729C285.676 203.928 282.824 212.609 282.824 223.769V243.113L282.832 244.183C283.005 255.151 285.854 263.598 291.38 269.524C296.906 275.371 304.41 278.386 313.893 278.568L314.816 278.577C324.736 278.577 332.548 275.559 338.252 269.524C343.778 263.598 346.627 255.151 346.8 244.183L346.808 243.113V223.769ZM329.44 222.776C329.44 219.459 328.98 216.449 328.074 213.735L327.888 213.196C326.936 210.561 325.484 208.473 323.539 206.897L323.145 206.589L323.137 206.584L323.13 206.578C321.122 205.016 318.384 204.185 314.816 204.185C311.251 204.185 308.462 205.016 306.364 206.589C304.22 208.197 302.636 210.386 301.621 213.196C300.673 216.05 300.192 219.24 300.192 222.776V244.104L300.205 245.153C300.329 250.158 301.346 254.22 303.198 257.393L303.393 257.718C305.375 260.949 309.06 262.697 314.816 262.697V263.697L314.264 263.691C308.792 263.585 304.956 261.88 302.755 258.576L302.54 258.241C300.447 254.831 299.336 250.476 299.205 245.177L299.192 244.104V222.776C299.192 219.139 299.688 215.832 300.68 212.856C301.687 210.067 303.24 207.822 305.337 206.122L305.764 205.789C308.078 204.053 311.096 203.185 314.816 203.185L315.505 203.195C318.905 203.297 321.652 204.162 323.744 205.789C326.059 207.525 327.753 209.881 328.828 212.856C329.903 215.832 330.44 219.139 330.44 222.776V244.104L330.427 245.177C330.296 250.476 329.184 254.831 327.092 258.241L326.877 258.576C324.602 261.99 320.582 263.697 314.816 263.697V262.697C320.572 262.697 324.257 260.949 326.24 257.718C328.347 254.284 329.44 249.77 329.44 244.104V222.776ZM347.808 243.113L347.8 244.197C347.625 255.326 344.73 264.044 338.983 270.207L338.979 270.212C333.049 276.485 324.953 279.577 314.816 279.577C304.996 279.577 297.091 276.675 291.216 270.79L290.653 270.212L290.648 270.207C284.716 263.845 281.824 254.761 281.824 243.113V223.769C281.824 212.444 284.72 203.494 290.64 197.057L291.201 196.454C297.074 190.331 304.984 187.305 314.816 187.305C324.963 187.305 333.062 190.528 338.987 197.052C344.91 203.49 347.808 212.441 347.808 223.769V243.113Z" fill="black"/>
<path d="M269.882 223.769C269.882 212.609 267.03 203.928 261.326 197.729C255.801 191.642 248.297 188.505 238.814 188.314L237.891 188.305C227.971 188.305 220.158 191.446 214.454 197.729C208.75 203.928 205.898 212.609 205.898 223.769V243.113L205.906 244.183C206.079 255.151 208.929 263.598 214.454 269.524C219.98 275.371 227.484 278.386 236.967 278.568L237.891 278.577C247.81 278.577 255.622 275.559 261.326 269.524C266.852 263.598 269.701 255.151 269.874 244.183L269.882 243.113V223.769ZM252.515 222.776C252.515 219.459 252.054 216.449 251.148 213.735L250.962 213.196C250.01 210.561 248.558 208.473 246.613 206.897L246.219 206.589L246.211 206.584L246.204 206.578C244.196 205.016 241.458 204.185 237.891 204.185C234.325 204.185 231.536 205.016 229.438 206.589C227.294 208.197 225.71 210.386 224.695 213.196C223.747 216.05 223.267 219.24 223.267 222.776V244.104L223.279 245.153C223.403 250.158 224.421 254.22 226.272 257.393L226.467 257.718C228.45 260.949 232.134 262.697 237.891 262.697V263.697L237.338 263.691C231.867 263.585 228.031 261.88 225.829 258.576L225.614 258.241C223.522 254.831 222.41 250.476 222.279 245.177L222.267 244.104V222.776C222.267 219.139 222.762 215.832 223.754 212.856C224.761 210.067 226.314 207.822 228.411 206.122L228.838 205.789C231.153 204.053 234.171 203.185 237.891 203.185L238.579 203.195C241.979 203.297 244.726 204.162 246.818 205.789C249.133 207.525 250.828 209.881 251.902 212.856C252.977 215.832 253.515 219.139 253.515 222.776V244.104L253.501 245.177C253.37 250.476 252.259 254.831 250.166 258.241L249.951 258.576C247.676 261.99 243.656 263.697 237.891 263.697V262.697C243.647 262.697 247.332 260.949 249.314 257.718C251.421 254.284 252.515 249.77 252.515 244.104V222.776ZM270.882 243.113L270.874 244.197C270.699 255.326 267.805 264.044 262.058 270.207L262.053 270.212C256.124 276.485 248.027 279.577 237.891 279.577C228.07 279.577 220.165 276.675 214.29 270.79L213.728 270.212L213.723 270.207C207.79 263.845 204.899 254.761 204.898 243.113V223.769C204.898 212.444 207.794 203.494 213.714 197.057L214.275 196.454C220.148 190.331 228.058 187.305 237.891 187.305C248.037 187.305 256.136 190.528 262.062 197.052C267.984 203.49 270.882 212.441 270.882 223.769V243.113Z" fill="black"/>
<path d="M190.351 246.831C190.351 243.938 189.482 241.54 187.746 239.639C186.093 237.738 183.82 236.622 180.927 236.291V234.059C184.812 232.405 187.705 230.05 189.606 226.991C191.466 224.046 192.455 220.919 192.571 217.611L192.583 216.947V213.971C192.583 209.507 191.549 205.497 189.482 201.942C187.545 198.533 184.736 195.777 181.055 193.675L180.307 193.263C176.509 191.248 171.876 190.178 166.407 190.052L165.303 190.039V189.039C171.181 189.039 176.22 190.067 180.376 192.173L180.775 192.38C184.974 194.608 188.177 197.626 190.347 201.44C192.51 205.161 193.583 209.346 193.583 213.971V216.947L193.57 217.647C193.447 221.137 192.403 224.432 190.455 227.518L190.456 227.519C188.532 230.614 185.668 233.003 181.927 234.708V235.428C184.614 235.897 186.823 237.062 188.485 238.965C190.411 241.074 191.351 243.722 191.351 246.831V277.839H172.982V250.799C172.982 249.115 172.559 247.812 171.776 246.813L171.615 246.618L171.602 246.603L171.59 246.588C170.868 245.686 169.538 245.103 167.286 245.103H149.438V277.839H131.07V189.039H165.303V190.039H132.07V276.839H148.438V244.103H167.286C169.683 244.103 171.378 244.723 172.37 245.963C173.445 247.203 173.982 248.815 173.982 250.799V276.839H190.351V246.831ZM175.215 216.327C175.215 213.702 174.288 211.475 172.407 209.594L172.394 209.58C170.686 207.804 168.189 206.794 164.761 206.675L164.062 206.663H149.438V227.479H164.062V228.479H148.438V205.663H164.062C168.03 205.663 171.048 206.738 173.114 208.887C175.181 210.953 176.215 213.434 176.215 216.327V217.814L176.202 218.427C176.081 221.444 175.052 223.844 173.114 225.627L172.918 225.803C170.858 227.587 167.906 228.479 164.062 228.479V227.479C167.883 227.479 170.62 226.563 172.438 224.891C174.262 223.212 175.215 220.896 175.215 217.814V216.327Z" fill="black"/>
<path d="M98.6631 220.545C98.6631 218.094 98.28 215.676 97.5117 213.287L97.3535 212.81L97.3496 212.801C96.5016 210.257 95.0459 208.191 92.9727 206.578C90.9749 205.024 88.1203 204.185 84.2871 204.185C80.8212 204.185 78.0284 205.049 75.8389 206.71L75.835 206.713C73.685 208.325 72.0559 210.522 70.959 213.343C69.9339 216.108 69.415 219.167 69.415 222.529V244.353L69.4287 245.368C69.5608 250.217 70.6483 254.199 72.6367 257.366L72.8457 257.69C74.9993 260.958 78.7139 262.697 84.2871 262.697V263.697L83.749 263.691C78.4232 263.585 74.587 261.88 72.2402 258.576L72.0107 258.241C69.7633 254.831 68.5692 250.549 68.4287 245.396L68.415 244.353V222.529C68.415 219.057 68.9517 215.874 70.0264 212.98C71.1114 210.19 72.7053 207.945 74.8076 206.245L75.2344 205.913C77.6317 204.094 80.6498 203.185 84.2871 203.185L85.0205 203.195C88.6388 203.297 91.4944 204.162 93.5869 205.789C95.8187 207.525 97.3895 209.757 98.2988 212.484C99.2082 215.13 99.6631 217.817 99.6631 220.545V222.776H116.03V220.545C116.03 210.625 113.303 202.771 107.847 196.984C102.641 191.379 95.1082 188.489 85.248 188.313L84.2871 188.305C74.3672 188.305 66.5132 191.446 60.7266 197.729C54.9399 203.928 52.0469 212.609 52.0469 223.769V243.113L52.0557 244.183C52.2309 255.151 55.121 263.598 60.7266 269.524C66.3323 275.37 73.8777 278.386 83.3623 278.568L84.2871 278.577C94.6203 278.577 102.473 275.766 107.847 270.145C113.132 264.699 115.857 257.081 116.022 247.291L116.03 246.337V244.104H99.6631V246.337L99.6582 246.893C99.6098 249.663 99.1978 252.289 98.4229 254.769C97.6789 257.414 96.1909 259.563 93.959 261.217L93.5283 261.518C91.3197 262.97 88.2392 263.697 84.2871 263.697V262.697C88.3934 262.697 91.3721 261.888 93.3633 260.413C95.4192 258.89 96.7767 256.927 97.46 254.498L97.4678 254.471C98.2621 251.929 98.6631 249.219 98.6631 246.337V243.104H117.03V246.337L117.022 247.308C116.854 257.272 114.075 265.158 108.568 270.835L108.569 270.836C102.951 276.713 94.7997 279.577 84.2871 279.577C74.1496 279.577 66.0151 276.485 60.0049 270.217L60 270.212C53.9821 263.85 51.047 254.765 51.0469 243.113V223.769C51.0469 212.438 53.9877 203.484 59.9961 197.047C66.0027 190.528 74.1396 187.305 84.2871 187.305C94.8045 187.305 102.957 190.255 108.573 196.299H108.574C114.246 202.314 117.03 210.436 117.03 220.545V223.776H98.6631V220.545Z" fill="black"/>
</svg>
